<svg xmlns="http://www.w3.org/2000/svg" xmlns:xlink="http://www.w3.org/1999/xlink" width="500" zoomAndPan="magnify" viewBox="0 0 375 374.999991" height="500" preserveAspectRatio="xMidYMid meet" version="1.0"><defs><clipPath id="f79c875d7c"><path d="M 156.03125 219 L 161 219 L 161 223.992188 L 156.03125 223.992188 Z M 156.03125 219 " clip-rule="nonzero"/></clipPath><clipPath id="a79825c32c"><path d="M 294 151.992188 L 298.53125 151.992188 L 298.53125 157 L 294 157 Z M 294 151.992188 " clip-rule="nonzero"/></clipPath></defs><g clip-path="url(#f79c875d7c)"><path fill="#004aad" d="M 158.207031 219.902344 C 157.078125 219.902344 156.160156 220.816406 156.160156 221.945312 C 156.160156 223.074219 157.078125 223.988281 158.207031 223.988281 C 159.335938 223.988281 160.253906 223.074219 160.253906 221.945312 C 160.253906 220.816406 159.335938 219.902344 158.207031 219.902344 Z M 158.207031 219.902344 " fill-opacity="1" fill-rule="evenodd"/></g><g clip-path="url(#a79825c32c)"><path fill="#004aad" d="M 294.308594 154.027344 C 294.308594 152.898438 295.226562 151.984375 296.359375 151.984375 C 297.488281 151.984375 298.410156 152.898438 298.410156 154.027344 C 298.410156 155.160156 297.488281 156.074219 296.359375 156.074219 C 295.226562 156.074219 294.308594 155.160156 294.308594 154.027344 Z M 294.308594 154.027344 " fill-opacity="1" fill-rule="evenodd"/></g><path fill="#004aad" d="M 159.4375 222.382812 L 272.707031 222.382812 C 286.011719 222.382812 296.796875 211.617188 296.796875 198.339844 L 296.796875 155.257812 C 296.796875 155.015625 296.601562 154.820312 296.359375 154.820312 C 296.117188 154.820312 295.921875 155.015625 295.921875 155.257812 L 295.921875 198.339844 C 295.921875 211.136719 285.527344 221.507812 272.707031 221.507812 L 159.4375 221.507812 C 159.195312 221.507812 158.996094 221.703125 158.996094 221.945312 C 158.996094 222.1875 159.195312 222.382812 159.4375 222.382812 Z M 159.4375 222.382812 " fill-opacity="1" fill-rule="evenodd"/><path fill="#004aad" d="M 113.488281 162.222656 L 117.972656 162.222656 L 117.972656 170.832031 C 116.816406 171.699219 115.476562 172.363281 113.957031 172.832031 C 112.445312 173.289062 110.925781 173.519531 109.394531 173.519531 C 107.183594 173.519531 105.199219 173.050781 103.441406 172.113281 C 101.691406 171.175781 100.316406 169.875 99.316406 168.207031 C 98.316406 166.542969 97.816406 164.65625 97.816406 162.550781 C 97.816406 160.449219 98.316406 158.5625 99.316406 156.894531 C 100.316406 155.230469 101.699219 153.925781 103.472656 152.988281 C 105.253906 152.050781 107.257812 151.582031 109.488281 151.582031 C 111.339844 151.582031 113.023438 151.894531 114.535156 152.519531 C 116.054688 153.144531 117.332031 154.050781 118.363281 155.238281 L 115.207031 158.160156 C 113.695312 156.558594 111.867188 155.753906 109.722656 155.753906 C 108.367188 155.753906 107.164062 156.042969 106.113281 156.613281 C 105.058594 157.175781 104.242188 157.972656 103.660156 159.003906 C 103.074219 160.035156 102.785156 161.21875 102.785156 162.550781 C 102.785156 163.863281 103.074219 165.035156 103.660156 166.066406 C 104.242188 167.097656 105.054688 167.90625 106.097656 168.488281 C 107.136719 169.0625 108.324219 169.347656 109.660156 169.347656 C 111.074219 169.347656 112.351562 169.042969 113.488281 168.425781 Z M 113.488281 162.222656 " fill-opacity="1" fill-rule="nonzero"/><path fill="#004aad" d="M 134.523438 165.644531 L 134.523438 173.160156 L 129.617188 173.160156 L 129.617188 165.582031 L 121.398438 151.941406 L 126.617188 151.941406 L 132.273438 161.363281 L 137.945312 151.941406 L 142.773438 151.941406 Z M 134.523438 165.644531 " fill-opacity="1" fill-rule="nonzero"/><path fill="#004aad" d="M 165.960938 173.160156 L 165.929688 160.425781 L 159.679688 170.910156 L 157.476562 170.910156 L 151.257812 160.707031 L 151.257812 173.160156 L 146.648438 173.160156 L 146.648438 151.941406 L 150.710938 151.941406 L 158.648438 165.128906 L 166.476562 151.941406 L 170.507812 151.941406 L 170.570312 173.160156 Z M 165.960938 173.160156 " fill-opacity="1" fill-rule="nonzero"/><path fill="#004aad" d="M 197.976562 173.519531 C 195.808594 173.519531 193.851562 173.050781 192.101562 172.113281 C 190.359375 171.175781 188.992188 169.875 187.992188 168.207031 C 186.992188 166.542969 186.492188 164.65625 186.492188 162.550781 C 186.492188 160.449219 186.992188 158.5625 187.992188 156.894531 C 188.992188 155.230469 190.359375 153.925781 192.101562 152.988281 C 193.851562 152.050781 195.820312 151.582031 198.007812 151.582031 C 199.839844 151.582031 201.5 151.90625 202.992188 152.550781 C 204.480469 153.199219 205.730469 154.125 206.742188 155.332031 L 203.585938 158.253906 C 202.148438 156.589844 200.367188 155.753906 198.242188 155.753906 C 196.929688 155.753906 195.757812 156.046875 194.726562 156.628906 C 193.695312 157.203125 192.890625 158.003906 192.320312 159.035156 C 191.746094 160.066406 191.460938 161.238281 191.460938 162.550781 C 191.460938 163.863281 191.746094 165.035156 192.320312 166.066406 C 192.890625 167.097656 193.695312 167.90625 194.726562 168.488281 C 195.757812 169.0625 196.929688 169.347656 198.242188 169.347656 C 200.367188 169.347656 202.148438 168.511719 203.585938 166.832031 L 206.742188 169.738281 C 205.730469 170.96875 204.476562 171.90625 202.976562 172.550781 C 201.476562 173.195312 199.808594 173.519531 197.976562 173.519531 Z M 197.976562 173.519531 " fill-opacity="1" fill-rule="nonzero"/><path fill="#004aad" d="M 211.859375 151.941406 L 216.765625 151.941406 L 216.765625 169.160156 L 227.40625 169.160156 L 227.40625 173.160156 L 211.859375 173.160156 Z M 211.859375 151.941406 " fill-opacity="1" fill-rule="nonzero"/><path fill="#004aad" d="M 241.410156 173.519531 C 238.378906 173.519531 236.019531 172.683594 234.332031 171.003906 C 232.644531 169.328125 231.800781 166.933594 231.800781 163.816406 L 231.800781 151.941406 L 236.722656 151.941406 L 236.722656 163.644531 C 236.722656 167.449219 238.292969 169.347656 241.441406 169.347656 C 242.980469 169.347656 244.152344 168.890625 244.957031 167.972656 C 245.769531 167.046875 246.175781 165.605469 246.175781 163.644531 L 246.175781 151.941406 L 251.019531 151.941406 L 251.019531 163.816406 C 251.019531 166.933594 250.175781 169.328125 248.488281 171.003906 C 246.800781 172.683594 244.441406 173.519531 241.410156 173.519531 Z M 241.410156 173.519531 " fill-opacity="1" fill-rule="nonzero"/><path fill="#004aad" d="M 273.277344 162.128906 C 274.496094 162.515625 275.449219 163.15625 276.136719 164.050781 C 276.824219 164.949219 277.167969 166.050781 277.167969 167.363281 C 277.167969 169.230469 276.441406 170.660156 274.996094 171.660156 C 273.546875 172.660156 271.4375 173.160156 268.667969 173.160156 L 257.699219 173.160156 L 257.699219 151.941406 L 268.074219 151.941406 C 270.65625 151.941406 272.640625 152.4375 274.027344 153.425781 C 275.410156 154.417969 276.105469 155.761719 276.105469 157.457031 C 276.105469 158.488281 275.855469 159.410156 275.355469 160.222656 C 274.863281 161.027344 274.171875 161.660156 273.277344 162.128906 Z M 262.574219 155.644531 L 262.574219 160.644531 L 267.464844 160.644531 C 268.671875 160.644531 269.589844 160.433594 270.214844 160.003906 C 270.839844 159.578125 271.152344 158.953125 271.152344 158.128906 C 271.152344 157.296875 270.839844 156.675781 270.214844 156.269531 C 269.589844 155.855469 268.671875 155.644531 267.464844 155.644531 Z M 268.308594 169.457031 C 269.597656 169.457031 270.574219 169.25 271.230469 168.832031 C 271.886719 168.40625 272.214844 167.746094 272.214844 166.847656 C 272.214844 165.097656 270.910156 164.222656 268.308594 164.222656 L 262.574219 164.222656 L 262.574219 169.457031 Z M 268.308594 169.457031 " fill-opacity="1" fill-rule="nonzero"/><path fill="#000000" d="M 89.492188 199.019531 C 88.78125 199.019531 88.152344 198.871094 87.601562 198.566406 C 87.046875 198.253906 86.617188 197.832031 86.304688 197.300781 C 85.992188 196.769531 85.835938 196.160156 85.835938 195.472656 C 85.835938 194.796875 85.992188 194.191406 86.304688 193.660156 C 86.617188 193.121094 87.046875 192.703125 87.601562 192.410156 C 88.152344 192.109375 88.78125 191.957031 89.492188 191.957031 C 90.117188 191.957031 90.671875 192.082031 91.164062 192.332031 C 91.664062 192.582031 92.046875 192.949219 92.320312 193.425781 L 91.367188 194.050781 C 91.148438 193.71875 90.875 193.46875 90.554688 193.300781 C 90.230469 193.136719 89.871094 193.050781 89.476562 193.050781 C 89.027344 193.050781 88.621094 193.152344 88.257812 193.347656 C 87.890625 193.546875 87.605469 193.832031 87.398438 194.207031 C 87.199219 194.574219 87.101562 194.996094 87.101562 195.472656 C 87.101562 195.964844 87.199219 196.394531 87.398438 196.769531 C 87.605469 197.136719 87.890625 197.421875 88.257812 197.628906 C 88.621094 197.828125 89.027344 197.925781 89.476562 197.925781 C 89.871094 197.925781 90.230469 197.84375 90.554688 197.675781 C 90.875 197.511719 91.148438 197.261719 91.367188 196.925781 L 92.320312 197.535156 C 92.046875 198.015625 91.664062 198.386719 91.164062 198.644531 C 90.671875 198.894531 90.117188 199.019531 89.492188 199.019531 Z M 89.492188 199.019531 " fill-opacity="1" fill-rule="nonzero"/><path fill="#000000" d="M 105.960938 191.957031 C 106.835938 191.957031 107.53125 192.214844 108.054688 192.722656 C 108.574219 193.234375 108.835938 193.980469 108.835938 194.957031 L 108.835938 198.941406 L 107.570312 198.941406 L 107.570312 195.097656 C 107.570312 194.433594 107.40625 193.933594 107.085938 193.597656 C 106.761719 193.253906 106.304688 193.082031 105.710938 193.082031 C 105.03125 193.082031 104.496094 193.28125 104.101562 193.675781 C 103.703125 194.074219 103.507812 194.640625 103.507812 195.378906 L 103.507812 198.941406 L 102.257812 198.941406 L 102.257812 189.253906 L 103.507812 189.253906 L 103.507812 193.003906 C 103.765625 192.671875 104.109375 192.417969 104.539062 192.238281 C 104.964844 192.050781 105.4375 191.957031 105.960938 191.957031 Z M 105.960938 191.957031 " fill-opacity="1" fill-rule="nonzero"/><path fill="#000000" d="M 121.984375 191.957031 C 122.941406 191.957031 123.675781 192.191406 124.1875 192.660156 C 124.695312 193.128906 124.953125 193.828125 124.953125 194.753906 L 124.953125 198.941406 L 123.765625 198.941406 L 123.765625 198.019531 C 123.554688 198.34375 123.257812 198.59375 122.875 198.769531 C 122.488281 198.9375 122.03125 199.019531 121.5 199.019531 C 120.71875 199.019531 120.09375 198.832031 119.625 198.457031 C 119.164062 198.082031 118.9375 197.59375 118.9375 196.988281 C 118.9375 196.375 119.15625 195.886719 119.59375 195.519531 C 120.039062 195.144531 120.75 194.957031 121.71875 194.957031 L 123.703125 194.957031 L 123.703125 194.707031 C 123.703125 194.167969 123.546875 193.753906 123.234375 193.472656 C 122.921875 193.183594 122.457031 193.035156 121.84375 193.035156 C 121.4375 193.035156 121.035156 193.105469 120.640625 193.238281 C 120.253906 193.375 119.925781 193.558594 119.65625 193.785156 L 119.125 192.847656 C 119.488281 192.558594 119.914062 192.339844 120.40625 192.191406 C 120.90625 192.035156 121.429688 191.957031 121.984375 191.957031 Z M 121.703125 198.050781 C 122.179688 198.050781 122.59375 197.949219 122.9375 197.738281 C 123.289062 197.519531 123.546875 197.21875 123.703125 196.832031 L 123.703125 195.863281 L 121.765625 195.863281 C 120.703125 195.863281 120.171875 196.21875 120.171875 196.925781 C 120.171875 197.28125 120.304688 197.558594 120.578125 197.753906 C 120.847656 197.953125 121.222656 198.050781 121.703125 198.050781 Z M 121.703125 198.050781 " fill-opacity="1" fill-rule="nonzero"/><path fill="#000000" d="M 139.304688 191.957031 C 140.179688 191.957031 140.875 192.214844 141.398438 192.722656 C 141.917969 193.234375 142.179688 193.980469 142.179688 194.957031 L 142.179688 198.941406 L 140.914062 198.941406 L 140.914062 195.097656 C 140.914062 194.433594 140.75 193.933594 140.429688 193.597656 C 140.105469 193.253906 139.648438 193.082031 139.054688 193.082031 C 138.375 193.082031 137.839844 193.28125 137.445312 193.675781 C 137.046875 194.074219 136.851562 194.640625 136.851562 195.378906 L 136.851562 198.941406 L 135.601562 198.941406 L 135.601562 192.019531 L 136.804688 192.019531 L 136.804688 193.066406 C 137.054688 192.714844 137.390625 192.441406 137.820312 192.253906 C 138.257812 192.058594 138.75 191.957031 139.304688 191.957031 Z M 139.304688 191.957031 " fill-opacity="1" fill-rule="nonzero"/><path fill="#000000" d="M 159.441406 192.019531 L 159.441406 198.003906 C 159.441406 199.210938 159.136719 200.101562 158.535156 200.675781 C 157.941406 201.257812 157.042969 201.550781 155.847656 201.550781 C 155.191406 201.550781 154.566406 201.460938 153.972656 201.285156 C 153.386719 201.105469 152.914062 200.851562 152.550781 200.519531 L 153.144531 199.550781 C 153.464844 199.832031 153.863281 200.050781 154.332031 200.207031 C 154.808594 200.371094 155.304688 200.457031 155.816406 200.457031 C 156.617188 200.457031 157.210938 200.261719 157.597656 199.878906 C 157.992188 199.492188 158.191406 198.910156 158.191406 198.128906 L 158.191406 197.582031 C 157.886719 197.9375 157.519531 198.207031 157.082031 198.394531 C 156.652344 198.574219 156.191406 198.660156 155.691406 198.660156 C 155.023438 198.660156 154.425781 198.519531 153.894531 198.238281 C 153.363281 197.949219 152.941406 197.546875 152.628906 197.035156 C 152.324219 196.527344 152.175781 195.949219 152.175781 195.300781 C 152.175781 194.644531 152.324219 194.0625 152.628906 193.550781 C 152.941406 193.042969 153.363281 192.652344 153.894531 192.378906 C 154.425781 192.097656 155.023438 191.957031 155.691406 191.957031 C 156.210938 191.957031 156.695312 192.058594 157.144531 192.253906 C 157.589844 192.441406 157.960938 192.71875 158.253906 193.082031 L 158.253906 192.019531 Z M 155.832031 197.550781 C 156.289062 197.550781 156.695312 197.457031 157.050781 197.269531 C 157.414062 197.082031 157.695312 196.816406 157.894531 196.472656 C 158.101562 196.128906 158.207031 195.738281 158.207031 195.300781 C 158.207031 194.625 157.980469 194.082031 157.535156 193.675781 C 157.097656 193.261719 156.527344 193.050781 155.832031 193.050781 C 155.121094 193.050781 154.542969 193.261719 154.097656 193.675781 C 153.660156 194.082031 153.441406 194.625 153.441406 195.300781 C 153.441406 195.738281 153.539062 196.128906 153.738281 196.472656 C 153.945312 196.816406 154.230469 197.082031 154.597656 197.269531 C 154.960938 197.457031 155.371094 197.550781 155.832031 197.550781 Z M 155.832031 197.550781 " fill-opacity="1" fill-rule="nonzero"/><path fill="#000000" d="M 170.148438 192.019531 L 171.398438 192.019531 L 171.398438 198.941406 L 170.148438 198.941406 Z M 170.773438 190.691406 C 170.53125 190.691406 170.328125 190.613281 170.164062 190.457031 C 170.007812 190.300781 169.929688 190.109375 169.929688 189.878906 C 169.929688 189.652344 170.007812 189.457031 170.164062 189.300781 C 170.328125 189.136719 170.53125 189.050781 170.773438 189.050781 C 171.023438 189.050781 171.226562 189.128906 171.382812 189.285156 C 171.546875 189.433594 171.632812 189.621094 171.632812 189.847656 C 171.632812 190.089844 171.546875 190.292969 171.382812 190.457031 C 171.226562 190.613281 171.023438 190.691406 170.773438 190.691406 Z M 170.773438 190.691406 " fill-opacity="1" fill-rule="nonzero"/><path fill="#000000" d="M 185.816406 191.957031 C 186.691406 191.957031 187.386719 192.214844 187.910156 192.722656 C 188.429688 193.234375 188.691406 193.980469 188.691406 194.957031 L 188.691406 198.941406 L 187.425781 198.941406 L 187.425781 195.097656 C 187.425781 194.433594 187.261719 193.933594 186.941406 193.597656 C 186.617188 193.253906 186.160156 193.082031 185.566406 193.082031 C 184.886719 193.082031 184.351562 193.28125 183.957031 193.675781 C 183.558594 194.074219 183.363281 194.640625 183.363281 195.378906 L 183.363281 198.941406 L 182.113281 198.941406 L 182.113281 192.019531 L 183.316406 192.019531 L 183.316406 193.066406 C 183.566406 192.714844 183.902344 192.441406 184.332031 192.253906 C 184.769531 192.058594 185.261719 191.957031 185.816406 191.957031 Z M 185.816406 191.957031 " fill-opacity="1" fill-rule="nonzero"/><path fill="#000000" d="M 205.953125 192.019531 L 205.953125 198.003906 C 205.953125 199.210938 205.648438 200.101562 205.046875 200.675781 C 204.453125 201.257812 203.554688 201.550781 202.359375 201.550781 C 201.703125 201.550781 201.078125 201.460938 200.484375 201.285156 C 199.898438 201.105469 199.425781 200.851562 199.0625 200.519531 L 199.65625 199.550781 C 199.976562 199.832031 200.375 200.050781 200.84375 200.207031 C 201.320312 200.371094 201.816406 200.457031 202.328125 200.457031 C 203.128906 200.457031 203.722656 200.261719 204.109375 199.878906 C 204.503906 199.492188 204.703125 198.910156 204.703125 198.128906 L 204.703125 197.582031 C 204.398438 197.9375 204.03125 198.207031 203.59375 198.394531 C 203.164062 198.574219 202.703125 198.660156 202.203125 198.660156 C 201.535156 198.660156 200.9375 198.519531 200.40625 198.238281 C 199.875 197.949219 199.453125 197.546875 199.140625 197.035156 C 198.835938 196.527344 198.6875 195.949219 198.6875 195.300781 C 198.6875 194.644531 198.835938 194.0625 199.140625 193.550781 C 199.453125 193.042969 199.875 192.652344 200.40625 192.378906 C 200.9375 192.097656 201.535156 191.957031 202.203125 191.957031 C 202.722656 191.957031 203.207031 192.058594 203.65625 192.253906 C 204.101562 192.441406 204.472656 192.71875 204.765625 193.082031 L 204.765625 192.019531 Z M 202.34375 197.550781 C 202.800781 197.550781 203.207031 197.457031 203.5625 197.269531 C 203.925781 197.082031 204.207031 196.816406 204.40625 196.472656 C 204.613281 196.128906 204.71875 195.738281 204.71875 195.300781 C 204.71875 194.625 204.492188 194.082031 204.046875 193.675781 C 203.609375 193.261719 203.039062 193.050781 202.34375 193.050781 C 201.632812 193.050781 201.054688 193.261719 200.609375 193.675781 C 200.171875 194.082031 199.953125 194.625 199.953125 195.300781 C 199.953125 195.738281 200.050781 196.128906 200.25 196.472656 C 200.457031 196.816406 200.742188 197.082031 201.109375 197.269531 C 201.472656 197.457031 201.882812 197.550781 202.34375 197.550781 Z M 202.34375 197.550781 " fill-opacity="1" fill-rule="nonzero"/><path fill="#000000" d="M 228.496094 189.253906 L 229.746094 189.253906 L 229.746094 198.941406 L 228.496094 198.941406 Z M 228.496094 189.253906 " fill-opacity="1" fill-rule="nonzero"/><path fill="#000000" d="M 240.464844 192.019531 L 241.714844 192.019531 L 241.714844 198.941406 L 240.464844 198.941406 Z M 241.089844 190.691406 C 240.847656 190.691406 240.644531 190.613281 240.480469 190.457031 C 240.324219 190.300781 240.246094 190.109375 240.246094 189.878906 C 240.246094 189.652344 240.324219 189.457031 240.480469 189.300781 C 240.644531 189.136719 240.847656 189.050781 241.089844 189.050781 C 241.339844 189.050781 241.542969 189.128906 241.699219 189.285156 C 241.863281 189.433594 241.949219 189.621094 241.949219 189.847656 C 241.949219 190.089844 241.863281 190.292969 241.699219 190.457031 C 241.542969 190.613281 241.339844 190.691406 241.089844 190.691406 Z M 241.089844 190.691406 " fill-opacity="1" fill-rule="nonzero"/><path fill="#000000" d="M 258.554688 192.019531 L 255.523438 198.941406 L 254.242188 198.941406 L 251.210938 192.019531 L 252.523438 192.019531 L 254.898438 197.566406 L 257.335938 192.019531 Z M 258.554688 192.019531 " fill-opacity="1" fill-rule="nonzero"/><path fill="#000000" d="M 274.316406 195.519531 C 274.316406 195.613281 274.304688 195.738281 274.285156 195.894531 L 268.660156 195.894531 C 268.742188 196.511719 269.011719 197.003906 269.472656 197.378906 C 269.929688 197.746094 270.496094 197.925781 271.175781 197.925781 C 271.996094 197.925781 272.664062 197.644531 273.175781 197.082031 L 273.863281 197.894531 C 273.550781 198.261719 273.160156 198.542969 272.691406 198.738281 C 272.230469 198.925781 271.710938 199.019531 271.128906 199.019531 C 270.398438 199.019531 269.746094 198.871094 269.175781 198.566406 C 268.613281 198.265625 268.175781 197.847656 267.863281 197.316406 C 267.558594 196.777344 267.410156 196.160156 267.410156 195.472656 C 267.410156 194.808594 267.558594 194.203125 267.863281 193.660156 C 268.164062 193.121094 268.574219 192.703125 269.097656 192.410156 C 269.628906 192.109375 270.222656 191.957031 270.878906 191.957031 C 271.542969 191.957031 272.136719 192.109375 272.660156 192.410156 C 273.179688 192.703125 273.585938 193.121094 273.878906 193.660156 C 274.167969 194.203125 274.316406 194.824219 274.316406 195.519531 Z M 270.878906 193.003906 C 270.285156 193.003906 269.785156 193.191406 269.378906 193.566406 C 268.972656 193.933594 268.730469 194.410156 268.660156 195.003906 L 273.113281 195.003906 C 273.039062 194.421875 272.800781 193.941406 272.394531 193.566406 C 271.988281 193.191406 271.480469 193.003906 270.878906 193.003906 Z M 270.878906 193.003906 " fill-opacity="1" fill-rule="nonzero"/><path fill="#000000" d="M 286.351562 199.019531 C 285.789062 199.019531 285.242188 198.945312 284.710938 198.800781 C 284.1875 198.644531 283.78125 198.449219 283.492188 198.207031 L 284.023438 197.222656 C 284.324219 197.441406 284.6875 197.621094 285.117188 197.753906 C 285.554688 197.878906 285.996094 197.941406 286.445312 197.941406 C 287.539062 197.941406 288.085938 197.625 288.085938 196.988281 C 288.085938 196.78125 288.011719 196.621094 287.867188 196.503906 C 287.71875 196.378906 287.53125 196.292969 287.304688 196.238281 C 287.085938 196.175781 286.773438 196.109375 286.367188 196.035156 C 285.804688 195.953125 285.34375 195.855469 284.992188 195.738281 C 284.648438 195.625 284.34375 195.433594 284.085938 195.160156 C 283.835938 194.890625 283.710938 194.515625 283.710938 194.035156 C 283.710938 193.402344 283.96875 192.894531 284.492188 192.519531 C 285.023438 192.144531 285.726562 191.957031 286.601562 191.957031 C 287.058594 191.957031 287.515625 192.015625 287.976562 192.128906 C 288.445312 192.234375 288.824219 192.386719 289.117188 192.582031 L 288.585938 193.566406 C 288.023438 193.203125 287.355469 193.019531 286.585938 193.019531 C 286.054688 193.019531 285.648438 193.109375 285.367188 193.285156 C 285.09375 193.464844 284.960938 193.691406 284.960938 193.972656 C 284.960938 194.203125 285.039062 194.386719 285.195312 194.519531 C 285.351562 194.644531 285.542969 194.738281 285.773438 194.800781 C 286 194.863281 286.324219 194.933594 286.742188 195.003906 C 287.304688 195.109375 287.757812 195.214844 288.101562 195.316406 C 288.445312 195.421875 288.734375 195.609375 288.976562 195.878906 C 289.226562 196.140625 289.351562 196.503906 289.351562 196.972656 C 289.351562 197.597656 289.078125 198.097656 288.539062 198.472656 C 288.007812 198.839844 287.277344 199.019531 286.351562 199.019531 Z M 286.351562 199.019531 " fill-opacity="1" fill-rule="nonzero"/></svg>