<svg xmlns="http://www.w3.org/2000/svg" xmlns:xlink="http://www.w3.org/1999/xlink" width="559" zoomAndPan="magnify" viewBox="0 0 419.25 297.75" height="396" preserveAspectRatio="xMidYMid meet" version="1.0"><defs><filter x="0%" y="0%" width="100%" height="100%" id="3a7343eec3"><feColorMatrix values="0 0 0 0 1 0 0 0 0 1 0 0 0 0 1 0 0 0 1 0" color-interpolation-filters="sRGB"/></filter><g/><mask id="e28d811164"><g filter="url(#3a7343eec3)"><rect x="-41.925" width="503.1" fill="#000000" y="-29.775" height="357.3" fill-opacity="0.4784"/></g></mask><clipPath id="9d7dea6908"><path d="M 0.785156 0.738281 L 65 0.738281 L 65 72.695312 L 0.785156 72.695312 Z M 0.785156 0.738281 " clip-rule="nonzero"/></clipPath><clipPath id="ba864052a6"><path d="M 43 0.738281 L 106.472656 0.738281 L 106.472656 72.695312 L 43 72.695312 Z M 43 0.738281 " clip-rule="nonzero"/></clipPath><clipPath id="39cc6fccba"><rect x="0" width="107" y="0" height="73"/></clipPath></defs><g mask="url(#e28d811164)"><g transform="matrix(1, 0, 0, 1, 62, 112)"><g clip-path="url(#39cc6fccba)"><g clip-path="url(#9d7dea6908)"><path fill="#ffffff" d="M 56.117188 28.855469 L 27.90625 0.765625 L 0.78125 0.765625 L 37.351562 36.722656 L 0.78125 72.683594 L 27.90625 72.683594 L 56.117188 44.59375 L 64.019531 36.722656 L 56.117188 28.855469 " fill-opacity="1" fill-rule="nonzero"/></g><g clip-path="url(#ba864052a6)"><path fill="#ffffff" d="M 98.574219 28.855469 L 70.363281 0.765625 L 43.234375 0.765625 L 79.808594 36.722656 L 43.234375 72.683594 L 70.363281 72.683594 L 98.574219 44.59375 L 106.476562 36.722656 L 98.574219 28.855469 " fill-opacity="1" fill-rule="nonzero"/></g></g></g></g><g fill="#ffffff" fill-opacity="1"><g transform="translate(221.908916, 86.320556)"><g><path d="M 16.34375 -6.34375 C 16.34375 -4.28125 15.597656 -2.65625 14.109375 -1.46875 C 12.628906 -0.28125 10.570312 0.3125 7.9375 0.3125 C 5.5 0.3125 3.34375 -0.144531 1.46875 -1.0625 L 1.46875 -5.5625 C 3.007812 -4.875 4.3125 -4.390625 5.375 -4.109375 C 6.445312 -3.828125 7.421875 -3.6875 8.296875 -3.6875 C 9.359375 -3.6875 10.171875 -3.890625 10.734375 -4.296875 C 11.304688 -4.703125 11.59375 -5.304688 11.59375 -6.109375 C 11.59375 -6.554688 11.46875 -6.953125 11.21875 -7.296875 C 10.96875 -7.648438 10.597656 -7.984375 10.109375 -8.296875 C 9.628906 -8.617188 8.648438 -9.132812 7.171875 -9.84375 C 5.773438 -10.5 4.726562 -11.128906 4.03125 -11.734375 C 3.332031 -12.335938 2.773438 -13.039062 2.359375 -13.84375 C 1.941406 -14.644531 1.734375 -15.582031 1.734375 -16.65625 C 1.734375 -18.675781 2.414062 -20.265625 3.78125 -21.421875 C 5.15625 -22.578125 7.046875 -23.15625 9.453125 -23.15625 C 10.640625 -23.15625 11.769531 -23.015625 12.84375 -22.734375 C 13.925781 -22.453125 15.054688 -22.054688 16.234375 -21.546875 L 14.671875 -17.78125 C 13.453125 -18.28125 12.441406 -18.628906 11.640625 -18.828125 C 10.847656 -19.023438 10.066406 -19.125 9.296875 -19.125 C 8.390625 -19.125 7.691406 -18.910156 7.203125 -18.484375 C 6.710938 -18.054688 6.46875 -17.5 6.46875 -16.8125 C 6.46875 -16.382812 6.566406 -16.007812 6.765625 -15.6875 C 6.960938 -15.375 7.273438 -15.066406 7.703125 -14.765625 C 8.128906 -14.472656 9.148438 -13.941406 10.765625 -13.171875 C 12.898438 -12.148438 14.363281 -11.125 15.15625 -10.09375 C 15.945312 -9.070312 16.34375 -7.820312 16.34375 -6.34375 Z M 16.34375 -6.34375 "/></g></g></g><g fill="#ffffff" fill-opacity="1"><g transform="translate(239.519011, 86.320556)"><g><path d="M 9.71875 -14.390625 C 8.707031 -14.390625 7.914062 -14.066406 7.34375 -13.421875 C 6.78125 -12.785156 6.457031 -11.878906 6.375 -10.703125 L 13.046875 -10.703125 C 13.023438 -11.878906 12.71875 -12.785156 12.125 -13.421875 C 11.53125 -14.066406 10.726562 -14.390625 9.71875 -14.390625 Z M 10.390625 0.3125 C 7.585938 0.3125 5.394531 -0.460938 3.8125 -2.015625 C 2.226562 -3.566406 1.4375 -5.757812 1.4375 -8.59375 C 1.4375 -11.519531 2.164062 -13.78125 3.625 -15.375 C 5.09375 -16.976562 7.113281 -17.78125 9.6875 -17.78125 C 12.15625 -17.78125 14.078125 -17.078125 15.453125 -15.671875 C 16.828125 -14.265625 17.515625 -12.320312 17.515625 -9.84375 L 17.515625 -7.546875 L 6.265625 -7.546875 C 6.316406 -6.191406 6.710938 -5.132812 7.453125 -4.375 C 8.203125 -3.613281 9.253906 -3.234375 10.609375 -3.234375 C 11.660156 -3.234375 12.65625 -3.34375 13.59375 -3.5625 C 14.53125 -3.78125 15.507812 -4.128906 16.53125 -4.609375 L 16.53125 -0.921875 C 15.695312 -0.503906 14.804688 -0.195312 13.859375 0 C 12.910156 0.207031 11.753906 0.3125 10.390625 0.3125 Z M 10.390625 0.3125 "/></g></g></g><g fill="#ffffff" fill-opacity="1"><g transform="translate(258.409271, 86.320556)"><g/></g></g><g fill="#ffffff" fill-opacity="1"><g transform="translate(266.714741, 86.320556)"><g><path d="M 9.71875 -14.390625 C 8.707031 -14.390625 7.914062 -14.066406 7.34375 -13.421875 C 6.78125 -12.785156 6.457031 -11.878906 6.375 -10.703125 L 13.046875 -10.703125 C 13.023438 -11.878906 12.71875 -12.785156 12.125 -13.421875 C 11.53125 -14.066406 10.726562 -14.390625 9.71875 -14.390625 Z M 10.390625 0.3125 C 7.585938 0.3125 5.394531 -0.460938 3.8125 -2.015625 C 2.226562 -3.566406 1.4375 -5.757812 1.4375 -8.59375 C 1.4375 -11.519531 2.164062 -13.78125 3.625 -15.375 C 5.09375 -16.976562 7.113281 -17.78125 9.6875 -17.78125 C 12.15625 -17.78125 14.078125 -17.078125 15.453125 -15.671875 C 16.828125 -14.265625 17.515625 -12.320312 17.515625 -9.84375 L 17.515625 -7.546875 L 6.265625 -7.546875 C 6.316406 -6.191406 6.710938 -5.132812 7.453125 -4.375 C 8.203125 -3.613281 9.253906 -3.234375 10.609375 -3.234375 C 11.660156 -3.234375 12.65625 -3.34375 13.59375 -3.5625 C 14.53125 -3.78125 15.507812 -4.128906 16.53125 -4.609375 L 16.53125 -0.921875 C 15.695312 -0.503906 14.804688 -0.195312 13.859375 0 C 12.910156 0.207031 11.753906 0.3125 10.390625 0.3125 Z M 10.390625 0.3125 "/></g></g></g><g fill="#ffffff" fill-opacity="1"><g transform="translate(285.605002, 86.320556)"><g><path d="M 6.078125 -8.90625 L 0.453125 -17.453125 L 5.859375 -17.453125 L 9.234375 -11.890625 L 12.65625 -17.453125 L 18.0625 -17.453125 L 12.375 -8.90625 L 18.328125 0 L 12.90625 0 L 9.234375 -5.984375 L 5.5625 0 L 0.15625 0 Z M 6.078125 -8.90625 "/></g></g></g><g fill="#ffffff" fill-opacity="1"><g transform="translate(304.089356, 86.320556)"><g><path d="M 9.71875 -14.390625 C 8.707031 -14.390625 7.914062 -14.066406 7.34375 -13.421875 C 6.78125 -12.785156 6.457031 -11.878906 6.375 -10.703125 L 13.046875 -10.703125 C 13.023438 -11.878906 12.71875 -12.785156 12.125 -13.421875 C 11.53125 -14.066406 10.726562 -14.390625 9.71875 -14.390625 Z M 10.390625 0.3125 C 7.585938 0.3125 5.394531 -0.460938 3.8125 -2.015625 C 2.226562 -3.566406 1.4375 -5.757812 1.4375 -8.59375 C 1.4375 -11.519531 2.164062 -13.78125 3.625 -15.375 C 5.09375 -16.976562 7.113281 -17.78125 9.6875 -17.78125 C 12.15625 -17.78125 14.078125 -17.078125 15.453125 -15.671875 C 16.828125 -14.265625 17.515625 -12.320312 17.515625 -9.84375 L 17.515625 -7.546875 L 6.265625 -7.546875 C 6.316406 -6.191406 6.710938 -5.132812 7.453125 -4.375 C 8.203125 -3.613281 9.253906 -3.234375 10.609375 -3.234375 C 11.660156 -3.234375 12.65625 -3.34375 13.59375 -3.5625 C 14.53125 -3.78125 15.507812 -4.128906 16.53125 -4.609375 L 16.53125 -0.921875 C 15.695312 -0.503906 14.804688 -0.195312 13.859375 0 C 12.910156 0.207031 11.753906 0.3125 10.390625 0.3125 Z M 10.390625 0.3125 "/></g></g></g><g fill="#ffffff" fill-opacity="1"><g transform="translate(322.979617, 86.320556)"><g><path d="M 12.234375 -17.78125 C 12.878906 -17.78125 13.414062 -17.734375 13.84375 -17.640625 L 13.484375 -13.171875 C 13.097656 -13.273438 12.628906 -13.328125 12.078125 -13.328125 C 10.554688 -13.328125 9.375 -12.9375 8.53125 -12.15625 C 7.6875 -11.375 7.265625 -10.28125 7.265625 -8.875 L 7.265625 0 L 2.5 0 L 2.5 -17.453125 L 6.109375 -17.453125 L 6.8125 -14.515625 L 7.046875 -14.515625 C 7.585938 -15.492188 8.316406 -16.28125 9.234375 -16.875 C 10.148438 -17.476562 11.148438 -17.78125 12.234375 -17.78125 Z M 12.234375 -17.78125 "/></g></g></g><g fill="#ffffff" fill-opacity="1"><g transform="translate(337.498577, 86.320556)"><g><path d="M 9.578125 0.3125 C 4.148438 0.3125 1.4375 -2.664062 1.4375 -8.625 C 1.4375 -11.59375 2.175781 -13.859375 3.65625 -15.421875 C 5.132812 -16.992188 7.25 -17.78125 10 -17.78125 C 12.019531 -17.78125 13.832031 -17.382812 15.4375 -16.59375 L 14.03125 -12.90625 C 13.28125 -13.207031 12.582031 -13.453125 11.9375 -13.640625 C 11.289062 -13.835938 10.644531 -13.9375 10 -13.9375 C 7.53125 -13.9375 6.296875 -12.175781 6.296875 -8.65625 C 6.296875 -5.25 7.53125 -3.546875 10 -3.546875 C 10.914062 -3.546875 11.765625 -3.664062 12.546875 -3.90625 C 13.328125 -4.15625 14.109375 -4.539062 14.890625 -5.0625 L 14.890625 -0.984375 C 14.117188 -0.492188 13.335938 -0.15625 12.546875 0.03125 C 11.765625 0.21875 10.773438 0.3125 9.578125 0.3125 Z M 9.578125 0.3125 "/></g></g></g><g fill="#ffffff" fill-opacity="1"><g transform="translate(353.937788, 86.320556)"><g><path d="M 2.296875 -21.96875 C 2.296875 -23.507812 3.160156 -24.28125 4.890625 -24.28125 C 6.617188 -24.28125 7.484375 -23.507812 7.484375 -21.96875 C 7.484375 -21.226562 7.265625 -20.648438 6.828125 -20.234375 C 6.398438 -19.828125 5.753906 -19.625 4.890625 -19.625 C 3.160156 -19.625 2.296875 -20.40625 2.296875 -21.96875 Z M 7.265625 0 L 2.5 0 L 2.5 -17.453125 L 7.265625 -17.453125 Z M 7.265625 0 "/></g></g></g><g fill="#ffffff" fill-opacity="1"><g transform="translate(363.695153, 86.320556)"><g><path d="M 9.84375 -3.484375 C 10.675781 -3.484375 11.675781 -3.664062 12.84375 -4.03125 L 12.84375 -0.484375 C 11.65625 0.046875 10.195312 0.3125 8.46875 0.3125 C 6.570312 0.3125 5.1875 -0.164062 4.3125 -1.125 C 3.445312 -2.09375 3.015625 -3.539062 3.015625 -5.46875 L 3.015625 -13.875 L 0.734375 -13.875 L 0.734375 -15.890625 L 3.359375 -17.484375 L 4.734375 -21.171875 L 7.78125 -21.171875 L 7.78125 -17.453125 L 12.65625 -17.453125 L 12.65625 -13.875 L 7.78125 -13.875 L 7.78125 -5.46875 C 7.78125 -4.789062 7.96875 -4.289062 8.34375 -3.96875 C 8.71875 -3.644531 9.21875 -3.484375 9.84375 -3.484375 Z M 9.84375 -3.484375 "/></g></g></g><g fill="#ffffff" fill-opacity="1"><g transform="translate(377.574031, 86.320556)"><g><path d="M 9.71875 -14.390625 C 8.707031 -14.390625 7.914062 -14.066406 7.34375 -13.421875 C 6.78125 -12.785156 6.457031 -11.878906 6.375 -10.703125 L 13.046875 -10.703125 C 13.023438 -11.878906 12.71875 -12.785156 12.125 -13.421875 C 11.53125 -14.066406 10.726562 -14.390625 9.71875 -14.390625 Z M 10.390625 0.3125 C 7.585938 0.3125 5.394531 -0.460938 3.8125 -2.015625 C 2.226562 -3.566406 1.4375 -5.757812 1.4375 -8.59375 C 1.4375 -11.519531 2.164062 -13.78125 3.625 -15.375 C 5.09375 -16.976562 7.113281 -17.78125 9.6875 -17.78125 C 12.15625 -17.78125 14.078125 -17.078125 15.453125 -15.671875 C 16.828125 -14.265625 17.515625 -12.320312 17.515625 -9.84375 L 17.515625 -7.546875 L 6.265625 -7.546875 C 6.316406 -6.191406 6.710938 -5.132812 7.453125 -4.375 C 8.203125 -3.613281 9.253906 -3.234375 10.609375 -3.234375 C 11.660156 -3.234375 12.65625 -3.34375 13.59375 -3.5625 C 14.53125 -3.78125 15.507812 -4.128906 16.53125 -4.609375 L 16.53125 -0.921875 C 15.695312 -0.503906 14.804688 -0.195312 13.859375 0 C 12.910156 0.207031 11.753906 0.3125 10.390625 0.3125 Z M 10.390625 0.3125 "/></g></g></g><g fill="#ffffff" fill-opacity="1"><g transform="translate(396.464292, 86.320556)"><g><path d="M 6.5 -7.578125 L 2.6875 -7.578125 L 1.890625 -22.828125 L 7.296875 -22.828125 Z M 1.828125 -2.234375 C 1.828125 -3.109375 2.0625 -3.769531 2.53125 -4.21875 C 3 -4.664062 3.679688 -4.890625 4.578125 -4.890625 C 5.441406 -4.890625 6.109375 -4.660156 6.578125 -4.203125 C 7.054688 -3.742188 7.296875 -3.085938 7.296875 -2.234375 C 7.296875 -1.410156 7.054688 -0.757812 6.578125 -0.28125 C 6.097656 0.1875 5.429688 0.421875 4.578125 0.421875 C 3.703125 0.421875 3.023438 0.191406 2.546875 -0.265625 C 2.066406 -0.734375 1.828125 -1.390625 1.828125 -2.234375 Z M 1.828125 -2.234375 "/></g></g></g><g fill="#ffffff" fill-opacity="1"><g transform="translate(214.150967, 127.295048)"><g><path d="M 11.625 -5.578125 C 11.625 -3.703125 11.160156 -2.273438 10.234375 -1.296875 C 9.316406 -0.328125 7.972656 0.15625 6.203125 0.15625 C 4.460938 0.15625 3.125 -0.332031 2.1875 -1.3125 C 1.257812 -2.289062 0.796875 -3.71875 0.796875 -5.59375 C 0.796875 -7.445312 1.257812 -8.863281 2.1875 -9.84375 C 3.113281 -10.820312 4.457031 -11.3125 6.21875 -11.3125 C 7.988281 -11.3125 9.332031 -10.820312 10.25 -9.84375 C 11.164062 -8.875 11.625 -7.453125 11.625 -5.578125 Z M 3.953125 -5.578125 C 3.953125 -3.429688 4.703125 -2.359375 6.203125 -2.359375 C 6.960938 -2.359375 7.523438 -2.617188 7.890625 -3.140625 C 8.265625 -3.660156 8.453125 -4.472656 8.453125 -5.578125 C 8.453125 -6.691406 8.265625 -7.515625 7.890625 -8.046875 C 7.515625 -8.578125 6.957031 -8.84375 6.21875 -8.84375 C 4.707031 -8.84375 3.953125 -7.753906 3.953125 -5.578125 Z M 3.953125 -5.578125 "/></g></g><g transform="translate(226.572374, 127.295048)"><g><path d="M 7.6875 -2.65625 C 7.6875 -1.726562 7.367188 -1.023438 6.734375 -0.546875 C 6.109375 -0.078125 5.207031 0.15625 4.03125 0.15625 C 3.394531 0.15625 2.835938 0.117188 2.359375 0.046875 C 1.890625 -0.015625 1.410156 -0.140625 0.921875 -0.328125 L 0.921875 -2.703125 C 1.378906 -2.503906 1.882812 -2.335938 2.4375 -2.203125 C 2.988281 -2.078125 3.476562 -2.015625 3.90625 -2.015625 C 4.550781 -2.015625 4.875 -2.160156 4.875 -2.453125 C 4.875 -2.609375 4.785156 -2.742188 4.609375 -2.859375 C 4.429688 -2.972656 3.90625 -3.207031 3.03125 -3.5625 C 2.238281 -3.882812 1.6875 -4.25 1.375 -4.65625 C 1.0625 -5.070312 0.90625 -5.597656 0.90625 -6.234375 C 0.90625 -7.035156 1.210938 -7.660156 1.828125 -8.109375 C 2.453125 -8.554688 3.332031 -8.78125 4.46875 -8.78125 C 5.03125 -8.78125 5.5625 -8.71875 6.0625 -8.59375 C 6.5625 -8.46875 7.082031 -8.285156 7.625 -8.046875 L 6.8125 -6.125 C 6.414062 -6.300781 5.992188 -6.453125 5.546875 -6.578125 C 5.109375 -6.703125 4.753906 -6.765625 4.484375 -6.765625 C 3.992188 -6.765625 3.75 -6.644531 3.75 -6.40625 C 3.75 -6.257812 3.832031 -6.132812 4 -6.03125 C 4.164062 -5.925781 4.65625 -5.710938 5.46875 -5.390625 C 6.070312 -5.148438 6.519531 -4.910156 6.8125 -4.671875 C 7.113281 -4.429688 7.332031 -4.148438 7.46875 -3.828125 C 7.613281 -3.503906 7.6875 -3.113281 7.6875 -2.65625 Z M 7.6875 -2.65625 "/></g></g><g transform="translate(234.883756, 127.295048)"><g/></g><g transform="translate(238.932891, 127.295048)"><g><path d="M 5.1875 0.15625 C 3.75 0.15625 2.632812 -0.222656 1.84375 -0.984375 C 1.050781 -1.753906 0.65625 -2.84375 0.65625 -4.25 C 0.65625 -5.707031 1.019531 -6.828125 1.75 -7.609375 C 2.488281 -8.390625 3.539062 -8.78125 4.90625 -8.78125 C 6.207031 -8.78125 7.210938 -8.441406 7.921875 -7.765625 C 8.628906 -7.085938 8.984375 -6.109375 8.984375 -4.828125 L 8.984375 -3.515625 L 3.65625 -3.515625 C 3.675781 -3.023438 3.851562 -2.644531 4.1875 -2.375 C 4.519531 -2.101562 4.972656 -1.96875 5.546875 -1.96875 C 6.066406 -1.96875 6.546875 -2.015625 6.984375 -2.109375 C 7.429688 -2.210938 7.910156 -2.382812 8.421875 -2.625 L 8.421875 -0.484375 C 7.953125 -0.242188 7.46875 -0.078125 6.96875 0.015625 C 6.476562 0.109375 5.882812 0.15625 5.1875 0.15625 Z M 5.015625 -6.75 C 4.671875 -6.75 4.378906 -6.640625 4.140625 -6.421875 C 3.898438 -6.203125 3.757812 -5.859375 3.71875 -5.390625 L 6.28125 -5.390625 C 6.269531 -5.796875 6.148438 -6.125 5.921875 -6.375 C 5.703125 -6.625 5.398438 -6.75 5.015625 -6.75 Z M 5.015625 -6.75 "/></g></g><g transform="translate(248.568614, 127.295048)"><g><path d="M 2.859375 -4.40625 L 0.21875 -8.625 L 3.59375 -8.625 L 4.90625 -6.203125 L 6.25 -8.625 L 9.640625 -8.625 L 6.9375 -4.40625 L 9.75 0 L 6.359375 0 L 4.90625 -2.625 L 3.46875 0 L 0.078125 0 Z M 2.859375 -4.40625 "/></g></g><g transform="translate(258.387005, 127.295048)"><g><path d="M 5.1875 0.15625 C 3.75 0.15625 2.632812 -0.222656 1.84375 -0.984375 C 1.050781 -1.753906 0.65625 -2.84375 0.65625 -4.25 C 0.65625 -5.707031 1.019531 -6.828125 1.75 -7.609375 C 2.488281 -8.390625 3.539062 -8.78125 4.90625 -8.78125 C 6.207031 -8.78125 7.210938 -8.441406 7.921875 -7.765625 C 8.628906 -7.085938 8.984375 -6.109375 8.984375 -4.828125 L 8.984375 -3.515625 L 3.65625 -3.515625 C 3.675781 -3.023438 3.851562 -2.644531 4.1875 -2.375 C 4.519531 -2.101562 4.972656 -1.96875 5.546875 -1.96875 C 6.066406 -1.96875 6.546875 -2.015625 6.984375 -2.109375 C 7.429688 -2.210938 7.910156 -2.382812 8.421875 -2.625 L 8.421875 -0.484375 C 7.953125 -0.242188 7.46875 -0.078125 6.96875 0.015625 C 6.476562 0.109375 5.882812 0.15625 5.1875 0.15625 Z M 5.015625 -6.75 C 4.671875 -6.75 4.378906 -6.640625 4.140625 -6.421875 C 3.898438 -6.203125 3.757812 -5.859375 3.71875 -5.390625 L 6.28125 -5.390625 C 6.269531 -5.796875 6.148438 -6.125 5.921875 -6.375 C 5.703125 -6.625 5.398438 -6.75 5.015625 -6.75 Z M 5.015625 -6.75 "/></g></g><g transform="translate(268.022729, 127.295048)"><g><path d="M 6.234375 -8.78125 C 6.492188 -8.78125 6.738281 -8.757812 6.96875 -8.71875 L 7.140625 -8.6875 L 6.875 -5.875 C 6.632812 -5.9375 6.296875 -5.96875 5.859375 -5.96875 C 5.210938 -5.96875 4.738281 -5.816406 4.4375 -5.515625 C 4.144531 -5.222656 4 -4.796875 4 -4.234375 L 4 0 L 1.03125 0 L 1.03125 -8.625 L 3.25 -8.625 L 3.703125 -7.25 L 3.859375 -7.25 C 4.097656 -7.707031 4.441406 -8.078125 4.890625 -8.359375 C 5.335938 -8.640625 5.785156 -8.78125 6.234375 -8.78125 Z M 6.234375 -8.78125 "/></g></g><g transform="translate(275.33705, 127.295048)"><g><path d="M 4.953125 0.15625 C 3.546875 0.15625 2.476562 -0.222656 1.75 -0.984375 C 1.019531 -1.742188 0.65625 -2.835938 0.65625 -4.265625 C 0.65625 -5.703125 1.046875 -6.8125 1.828125 -7.59375 C 2.617188 -8.382812 3.738281 -8.78125 5.1875 -8.78125 C 6.1875 -8.78125 7.128906 -8.5625 8.015625 -8.125 L 7.140625 -5.921875 C 6.773438 -6.078125 6.441406 -6.203125 6.140625 -6.296875 C 5.835938 -6.390625 5.519531 -6.4375 5.1875 -6.4375 C 4.707031 -6.4375 4.332031 -6.25 4.0625 -5.875 C 3.800781 -5.5 3.671875 -4.96875 3.671875 -4.28125 C 3.671875 -2.90625 4.179688 -2.21875 5.203125 -2.21875 C 6.078125 -2.21875 6.914062 -2.472656 7.71875 -2.984375 L 7.71875 -0.609375 C 6.957031 -0.0976562 6.035156 0.15625 4.953125 0.15625 Z M 4.953125 0.15625 "/></g></g><g transform="translate(283.739766, 127.295048)"><g><path d="M 4.015625 0 L 1.046875 0 L 1.046875 -8.625 L 4.015625 -8.625 Z M 0.8125 -9.453125 L 0.8125 -9.671875 C 1.59375 -10.503906 2.085938 -11.039062 2.296875 -11.28125 C 2.503906 -11.53125 2.675781 -11.753906 2.8125 -11.953125 L 6.078125 -11.953125 L 6.078125 -11.78125 C 5.671875 -11.457031 5.109375 -11.046875 4.390625 -10.546875 C 3.679688 -10.046875 3.144531 -9.679688 2.78125 -9.453125 Z M 0.8125 -9.453125 "/></g></g><g transform="translate(288.808795, 127.295048)"><g><path d="M 4.953125 0.15625 C 3.546875 0.15625 2.476562 -0.222656 1.75 -0.984375 C 1.019531 -1.742188 0.65625 -2.835938 0.65625 -4.265625 C 0.65625 -5.703125 1.046875 -6.8125 1.828125 -7.59375 C 2.617188 -8.382812 3.738281 -8.78125 5.1875 -8.78125 C 6.1875 -8.78125 7.128906 -8.5625 8.015625 -8.125 L 7.140625 -5.921875 C 6.773438 -6.078125 6.441406 -6.203125 6.140625 -6.296875 C 5.835938 -6.390625 5.519531 -6.4375 5.1875 -6.4375 C 4.707031 -6.4375 4.332031 -6.25 4.0625 -5.875 C 3.800781 -5.5 3.671875 -4.96875 3.671875 -4.28125 C 3.671875 -2.90625 4.179688 -2.21875 5.203125 -2.21875 C 6.078125 -2.21875 6.914062 -2.472656 7.71875 -2.984375 L 7.71875 -0.609375 C 6.957031 -0.0976562 6.035156 0.15625 4.953125 0.15625 Z M 4.953125 0.15625 "/></g></g><g transform="translate(297.211512, 127.295048)"><g><path d="M 4.015625 0 L 1.046875 0 L 1.046875 -8.625 L 4.015625 -8.625 Z M 0.96875 -10.78125 C 0.96875 -11.21875 1.09375 -11.546875 1.34375 -11.765625 C 1.59375 -11.984375 1.992188 -12.09375 2.546875 -12.09375 C 3.097656 -12.09375 3.5 -11.976562 3.75 -11.75 C 4.007812 -11.53125 4.140625 -11.207031 4.140625 -10.78125 C 4.140625 -9.90625 3.609375 -9.46875 2.546875 -9.46875 C 1.492188 -9.46875 0.96875 -9.90625 0.96875 -10.78125 Z M 0.96875 -10.78125 "/></g></g><g transform="translate(302.280541, 127.295048)"><g><path d="M 9.265625 -4.328125 C 9.265625 -2.921875 8.882812 -1.820312 8.125 -1.03125 C 7.363281 -0.238281 6.300781 0.15625 4.9375 0.15625 C 3.632812 0.15625 2.59375 -0.242188 1.8125 -1.046875 C 1.039062 -1.859375 0.65625 -2.953125 0.65625 -4.328125 C 0.65625 -5.734375 1.035156 -6.828125 1.796875 -7.609375 C 2.554688 -8.390625 3.617188 -8.78125 4.984375 -8.78125 C 5.835938 -8.78125 6.585938 -8.597656 7.234375 -8.234375 C 7.878906 -7.878906 8.378906 -7.363281 8.734375 -6.6875 C 9.085938 -6.019531 9.265625 -5.234375 9.265625 -4.328125 Z M 3.671875 -4.328125 C 3.671875 -3.585938 3.769531 -3.023438 3.96875 -2.640625 C 4.164062 -2.253906 4.5 -2.0625 4.96875 -2.0625 C 5.4375 -2.0625 5.765625 -2.253906 5.953125 -2.640625 C 6.140625 -3.023438 6.234375 -3.585938 6.234375 -4.328125 C 6.234375 -5.066406 6.132812 -5.625 5.9375 -6 C 5.75 -6.375 5.421875 -6.5625 4.953125 -6.5625 C 4.492188 -6.5625 4.164062 -6.375 3.96875 -6 C 3.769531 -5.625 3.671875 -5.066406 3.671875 -4.328125 Z M 3.671875 -4.328125 "/></g></g><g transform="translate(312.2131, 127.295048)"><g><path d="M 7.6875 -2.65625 C 7.6875 -1.726562 7.367188 -1.023438 6.734375 -0.546875 C 6.109375 -0.078125 5.207031 0.15625 4.03125 0.15625 C 3.394531 0.15625 2.835938 0.117188 2.359375 0.046875 C 1.890625 -0.015625 1.410156 -0.140625 0.921875 -0.328125 L 0.921875 -2.703125 C 1.378906 -2.503906 1.882812 -2.335938 2.4375 -2.203125 C 2.988281 -2.078125 3.476562 -2.015625 3.90625 -2.015625 C 4.550781 -2.015625 4.875 -2.160156 4.875 -2.453125 C 4.875 -2.609375 4.785156 -2.742188 4.609375 -2.859375 C 4.429688 -2.972656 3.90625 -3.207031 3.03125 -3.5625 C 2.238281 -3.882812 1.6875 -4.25 1.375 -4.65625 C 1.0625 -5.070312 0.90625 -5.597656 0.90625 -6.234375 C 0.90625 -7.035156 1.210938 -7.660156 1.828125 -8.109375 C 2.453125 -8.554688 3.332031 -8.78125 4.46875 -8.78125 C 5.03125 -8.78125 5.5625 -8.71875 6.0625 -8.59375 C 6.5625 -8.46875 7.082031 -8.285156 7.625 -8.046875 L 6.8125 -6.125 C 6.414062 -6.300781 5.992188 -6.453125 5.546875 -6.578125 C 5.109375 -6.703125 4.753906 -6.765625 4.484375 -6.765625 C 3.992188 -6.765625 3.75 -6.644531 3.75 -6.40625 C 3.75 -6.257812 3.832031 -6.132812 4 -6.03125 C 4.164062 -5.925781 4.65625 -5.710938 5.46875 -5.390625 C 6.070312 -5.148438 6.519531 -4.910156 6.8125 -4.671875 C 7.113281 -4.429688 7.332031 -4.148438 7.46875 -3.828125 C 7.613281 -3.503906 7.6875 -3.113281 7.6875 -2.65625 Z M 7.6875 -2.65625 "/></g></g><g transform="translate(320.524482, 127.295048)"><g/></g><g transform="translate(324.573617, 127.295048)"><g><path d="M 11.625 0 L 11.625 -4.6875 C 11.625 -5.269531 11.539062 -5.707031 11.375 -6 C 11.21875 -6.289062 10.96875 -6.4375 10.625 -6.4375 C 10.164062 -6.4375 9.828125 -6.238281 9.609375 -5.84375 C 9.398438 -5.457031 9.296875 -4.847656 9.296875 -4.015625 L 9.296875 0 L 6.3125 0 L 6.3125 -4.6875 C 6.3125 -5.269531 6.234375 -5.707031 6.078125 -6 C 5.929688 -6.289062 5.6875 -6.4375 5.34375 -6.4375 C 4.875 -6.4375 4.53125 -6.226562 4.3125 -5.8125 C 4.101562 -5.394531 4 -4.71875 4 -3.78125 L 4 0 L 1.03125 0 L 1.03125 -8.625 L 3.28125 -8.625 L 3.640625 -7.5625 L 3.828125 -7.5625 C 4.054688 -7.957031 4.382812 -8.257812 4.8125 -8.46875 C 5.25 -8.675781 5.742188 -8.78125 6.296875 -8.78125 C 7.535156 -8.78125 8.410156 -8.398438 8.921875 -7.640625 L 9.15625 -7.640625 C 9.394531 -7.992188 9.726562 -8.269531 10.15625 -8.46875 C 10.59375 -8.675781 11.078125 -8.78125 11.609375 -8.78125 C 12.628906 -8.78125 13.378906 -8.515625 13.859375 -7.984375 C 14.347656 -7.460938 14.59375 -6.671875 14.59375 -5.609375 L 14.59375 0 Z M 11.625 0 "/></g></g><g transform="translate(340.161264, 127.295048)"><g><path d="M 5.1875 0.15625 C 3.75 0.15625 2.632812 -0.222656 1.84375 -0.984375 C 1.050781 -1.753906 0.65625 -2.84375 0.65625 -4.25 C 0.65625 -5.707031 1.019531 -6.828125 1.75 -7.609375 C 2.488281 -8.390625 3.539062 -8.78125 4.90625 -8.78125 C 6.207031 -8.78125 7.210938 -8.441406 7.921875 -7.765625 C 8.628906 -7.085938 8.984375 -6.109375 8.984375 -4.828125 L 8.984375 -3.515625 L 3.65625 -3.515625 C 3.675781 -3.023438 3.851562 -2.644531 4.1875 -2.375 C 4.519531 -2.101562 4.972656 -1.96875 5.546875 -1.96875 C 6.066406 -1.96875 6.546875 -2.015625 6.984375 -2.109375 C 7.429688 -2.210938 7.910156 -2.382812 8.421875 -2.625 L 8.421875 -0.484375 C 7.953125 -0.242188 7.46875 -0.078125 6.96875 0.015625 C 6.476562 0.109375 5.882812 0.15625 5.1875 0.15625 Z M 5.015625 -6.75 C 4.671875 -6.75 4.378906 -6.640625 4.140625 -6.421875 C 3.898438 -6.203125 3.757812 -5.859375 3.71875 -5.390625 L 6.28125 -5.390625 C 6.269531 -5.796875 6.148438 -6.125 5.921875 -6.375 C 5.703125 -6.625 5.398438 -6.75 5.015625 -6.75 Z M 5.015625 -6.75 "/></g></g><g transform="translate(349.796988, 127.295048)"><g><path d="M 4 0 L 1.03125 0 L 1.03125 -11.84375 L 4 -11.84375 Z M 4 0 "/></g></g><g transform="translate(354.835573, 127.295048)"><g><path d="M 6.453125 0 L 6.453125 -4.703125 C 6.453125 -5.859375 6.109375 -6.4375 5.421875 -6.4375 C 4.941406 -6.4375 4.582031 -6.234375 4.34375 -5.828125 C 4.113281 -5.421875 4 -4.742188 4 -3.796875 L 4 0 L 1.03125 0 L 1.03125 -11.84375 L 4 -11.84375 L 4 -10.171875 C 4 -9.398438 3.960938 -8.53125 3.890625 -7.5625 L 4.015625 -7.5625 C 4.304688 -8.007812 4.644531 -8.320312 5.03125 -8.5 C 5.425781 -8.6875 5.878906 -8.78125 6.390625 -8.78125 C 7.359375 -8.78125 8.109375 -8.5 8.640625 -7.9375 C 9.179688 -7.382812 9.453125 -6.609375 9.453125 -5.609375 L 9.453125 0 Z M 6.453125 0 "/></g></g><g transform="translate(365.278079, 127.295048)"><g><path d="M 9.265625 -4.328125 C 9.265625 -2.921875 8.882812 -1.820312 8.125 -1.03125 C 7.363281 -0.238281 6.300781 0.15625 4.9375 0.15625 C 3.632812 0.15625 2.59375 -0.242188 1.8125 -1.046875 C 1.039062 -1.859375 0.65625 -2.953125 0.65625 -4.328125 C 0.65625 -5.734375 1.035156 -6.828125 1.796875 -7.609375 C 2.554688 -8.390625 3.617188 -8.78125 4.984375 -8.78125 C 5.835938 -8.78125 6.585938 -8.597656 7.234375 -8.234375 C 7.878906 -7.878906 8.378906 -7.363281 8.734375 -6.6875 C 9.085938 -6.019531 9.265625 -5.234375 9.265625 -4.328125 Z M 3.671875 -4.328125 C 3.671875 -3.585938 3.769531 -3.023438 3.96875 -2.640625 C 4.164062 -2.253906 4.5 -2.0625 4.96875 -2.0625 C 5.4375 -2.0625 5.765625 -2.253906 5.953125 -2.640625 C 6.140625 -3.023438 6.234375 -3.585938 6.234375 -4.328125 C 6.234375 -5.066406 6.132812 -5.625 5.9375 -6 C 5.75 -6.375 5.421875 -6.5625 4.953125 -6.5625 C 4.492188 -6.5625 4.164062 -6.375 3.96875 -6 C 3.769531 -5.625 3.671875 -5.066406 3.671875 -4.328125 Z M 3.671875 -4.328125 "/></g></g><g transform="translate(375.210637, 127.295048)"><g><path d="M 6.234375 -8.78125 C 6.492188 -8.78125 6.738281 -8.757812 6.96875 -8.71875 L 7.140625 -8.6875 L 6.875 -5.875 C 6.632812 -5.9375 6.296875 -5.96875 5.859375 -5.96875 C 5.210938 -5.96875 4.738281 -5.816406 4.4375 -5.515625 C 4.144531 -5.222656 4 -4.796875 4 -4.234375 L 4 0 L 1.03125 0 L 1.03125 -8.625 L 3.25 -8.625 L 3.703125 -7.25 L 3.859375 -7.25 C 4.097656 -7.707031 4.441406 -8.078125 4.890625 -8.359375 C 5.335938 -8.640625 5.785156 -8.78125 6.234375 -8.78125 Z M 6.234375 -8.78125 "/></g></g><g transform="translate(382.524958, 127.295048)"><g><path d="M 6.65625 0 L 6.078125 -1.140625 L 6.015625 -1.140625 C 5.617188 -0.640625 5.210938 -0.296875 4.796875 -0.109375 C 4.378906 0.0664062 3.84375 0.15625 3.1875 0.15625 C 2.375 0.15625 1.734375 -0.0859375 1.265625 -0.578125 C 0.796875 -1.066406 0.5625 -1.753906 0.5625 -2.640625 C 0.5625 -3.554688 0.878906 -4.238281 1.515625 -4.6875 C 2.160156 -5.132812 3.085938 -5.382812 4.296875 -5.4375 L 5.734375 -5.484375 L 5.734375 -5.609375 C 5.734375 -6.316406 5.382812 -6.671875 4.6875 -6.671875 C 4.0625 -6.671875 3.265625 -6.457031 2.296875 -6.03125 L 1.4375 -8 C 2.4375 -8.519531 3.703125 -8.78125 5.234375 -8.78125 C 6.335938 -8.78125 7.191406 -8.503906 7.796875 -7.953125 C 8.410156 -7.410156 8.71875 -6.644531 8.71875 -5.65625 L 8.71875 0 Z M 4.453125 -1.953125 C 4.804688 -1.953125 5.109375 -2.066406 5.359375 -2.296875 C 5.617188 -2.523438 5.75 -2.820312 5.75 -3.1875 L 5.75 -3.859375 L 5.078125 -3.828125 C 4.085938 -3.785156 3.59375 -3.421875 3.59375 -2.734375 C 3.59375 -2.210938 3.878906 -1.953125 4.453125 -1.953125 Z M 4.453125 -1.953125 "/></g></g><g transform="translate(392.236793, 127.295048)"><g><path d="M 11.625 0 L 11.625 -4.6875 C 11.625 -5.269531 11.539062 -5.707031 11.375 -6 C 11.21875 -6.289062 10.96875 -6.4375 10.625 -6.4375 C 10.164062 -6.4375 9.828125 -6.238281 9.609375 -5.84375 C 9.398438 -5.457031 9.296875 -4.847656 9.296875 -4.015625 L 9.296875 0 L 6.3125 0 L 6.3125 -4.6875 C 6.3125 -5.269531 6.234375 -5.707031 6.078125 -6 C 5.929688 -6.289062 5.6875 -6.4375 5.34375 -6.4375 C 4.875 -6.4375 4.53125 -6.226562 4.3125 -5.8125 C 4.101562 -5.394531 4 -4.71875 4 -3.78125 L 4 0 L 1.03125 0 L 1.03125 -8.625 L 3.28125 -8.625 L 3.640625 -7.5625 L 3.828125 -7.5625 C 4.054688 -7.957031 4.382812 -8.257812 4.8125 -8.46875 C 5.25 -8.675781 5.742188 -8.78125 6.296875 -8.78125 C 7.535156 -8.78125 8.410156 -8.398438 8.921875 -7.640625 L 9.15625 -7.640625 C 9.394531 -7.992188 9.726562 -8.269531 10.15625 -8.46875 C 10.59375 -8.675781 11.078125 -8.78125 11.609375 -8.78125 C 12.628906 -8.78125 13.378906 -8.515625 13.859375 -7.984375 C 14.347656 -7.460938 14.59375 -6.671875 14.59375 -5.609375 L 14.59375 0 Z M 11.625 0 "/></g></g></g><g fill="#ffffff" fill-opacity="1"><g transform="translate(407.824445, 127.295048)"><g/></g></g><g fill="#ffffff" fill-opacity="1"><g transform="translate(256.423327, 148.728063)"><g><path d="M 11.625 0 L 11.625 -4.6875 C 11.625 -5.269531 11.539062 -5.707031 11.375 -6 C 11.21875 -6.289062 10.96875 -6.4375 10.625 -6.4375 C 10.164062 -6.4375 9.828125 -6.238281 9.609375 -5.84375 C 9.398438 -5.457031 9.296875 -4.847656 9.296875 -4.015625 L 9.296875 0 L 6.3125 0 L 6.3125 -4.6875 C 6.3125 -5.269531 6.234375 -5.707031 6.078125 -6 C 5.929688 -6.289062 5.6875 -6.4375 5.34375 -6.4375 C 4.875 -6.4375 4.53125 -6.226562 4.3125 -5.8125 C 4.101562 -5.394531 4 -4.71875 4 -3.78125 L 4 0 L 1.03125 0 L 1.03125 -8.625 L 3.28125 -8.625 L 3.640625 -7.5625 L 3.828125 -7.5625 C 4.054688 -7.957031 4.382812 -8.257812 4.8125 -8.46875 C 5.25 -8.675781 5.742188 -8.78125 6.296875 -8.78125 C 7.535156 -8.78125 8.410156 -8.398438 8.921875 -7.640625 L 9.15625 -7.640625 C 9.394531 -7.992188 9.726562 -8.269531 10.15625 -8.46875 C 10.59375 -8.675781 11.078125 -8.78125 11.609375 -8.78125 C 12.628906 -8.78125 13.378906 -8.515625 13.859375 -7.984375 C 14.347656 -7.460938 14.59375 -6.671875 14.59375 -5.609375 L 14.59375 0 Z M 11.625 0 "/></g></g><g transform="translate(272.010974, 148.728063)"><g><path d="M 7.171875 0 L 6.796875 -1.078125 L 6.625 -1.078125 C 6.375 -0.679688 6.023438 -0.375 5.578125 -0.15625 C 5.140625 0.0507812 4.617188 0.15625 4.015625 0.15625 C 3.066406 0.15625 2.328125 -0.117188 1.796875 -0.671875 C 1.273438 -1.222656 1.015625 -2 1.015625 -3 L 1.015625 -8.625 L 3.984375 -8.625 L 3.984375 -3.90625 C 3.984375 -3.34375 4.0625 -2.914062 4.21875 -2.625 C 4.382812 -2.34375 4.648438 -2.203125 5.015625 -2.203125 C 5.523438 -2.203125 5.890625 -2.398438 6.109375 -2.796875 C 6.328125 -3.203125 6.4375 -3.882812 6.4375 -4.84375 L 6.4375 -8.625 L 9.421875 -8.625 L 9.421875 0 Z M 7.171875 0 "/></g></g><g transform="translate(282.45348, 148.728063)"><g><path d="M 4.015625 0 L 1.046875 0 L 1.046875 -8.625 L 4.015625 -8.625 Z M 0.96875 -10.78125 C 0.96875 -11.21875 1.09375 -11.546875 1.34375 -11.765625 C 1.59375 -11.984375 1.992188 -12.09375 2.546875 -12.09375 C 3.097656 -12.09375 3.5 -11.976562 3.75 -11.75 C 4.007812 -11.53125 4.140625 -11.207031 4.140625 -10.78125 C 4.140625 -9.90625 3.609375 -9.46875 2.546875 -9.46875 C 1.492188 -9.46875 0.96875 -9.90625 0.96875 -10.78125 Z M 0.96875 -10.78125 "/></g></g><g transform="translate(287.52251, 148.728063)"><g><path d="M 5.25 -2.203125 C 5.65625 -2.203125 6.132812 -2.300781 6.6875 -2.5 L 6.6875 -0.328125 C 6.289062 -0.148438 5.910156 -0.0234375 5.546875 0.046875 C 5.179688 0.117188 4.753906 0.15625 4.265625 0.15625 C 3.265625 0.15625 2.546875 -0.0859375 2.109375 -0.578125 C 1.671875 -1.066406 1.453125 -1.820312 1.453125 -2.84375 L 1.453125 -6.390625 L 0.40625 -6.390625 L 0.40625 -7.609375 L 1.734375 -8.546875 L 2.5 -10.359375 L 4.453125 -10.359375 L 4.453125 -8.625 L 6.5625 -8.625 L 6.5625 -6.390625 L 4.453125 -6.390625 L 4.453125 -3.03125 C 4.453125 -2.476562 4.71875 -2.203125 5.25 -2.203125 Z M 5.25 -2.203125 "/></g></g><g transform="translate(294.692219, 148.728063)"><g><path d="M 9.265625 -4.328125 C 9.265625 -2.921875 8.882812 -1.820312 8.125 -1.03125 C 7.363281 -0.238281 6.300781 0.15625 4.9375 0.15625 C 3.632812 0.15625 2.59375 -0.242188 1.8125 -1.046875 C 1.039062 -1.859375 0.65625 -2.953125 0.65625 -4.328125 C 0.65625 -5.734375 1.035156 -6.828125 1.796875 -7.609375 C 2.554688 -8.390625 3.617188 -8.78125 4.984375 -8.78125 C 5.835938 -8.78125 6.585938 -8.597656 7.234375 -8.234375 C 7.878906 -7.878906 8.378906 -7.363281 8.734375 -6.6875 C 9.085938 -6.019531 9.265625 -5.234375 9.265625 -4.328125 Z M 3.671875 -4.328125 C 3.671875 -3.585938 3.769531 -3.023438 3.96875 -2.640625 C 4.164062 -2.253906 4.5 -2.0625 4.96875 -2.0625 C 5.4375 -2.0625 5.765625 -2.253906 5.953125 -2.640625 C 6.140625 -3.023438 6.234375 -3.585938 6.234375 -4.328125 C 6.234375 -5.066406 6.132812 -5.625 5.9375 -6 C 5.75 -6.375 5.421875 -6.5625 4.953125 -6.5625 C 4.492188 -6.5625 4.164062 -6.375 3.96875 -6 C 3.769531 -5.625 3.671875 -5.066406 3.671875 -4.328125 Z M 3.671875 -4.328125 "/></g></g><g transform="translate(304.624777, 148.728063)"><g/></g><g transform="translate(308.673913, 148.728063)"><g><path d="M 9.265625 -4.328125 C 9.265625 -2.921875 8.882812 -1.820312 8.125 -1.03125 C 7.363281 -0.238281 6.300781 0.15625 4.9375 0.15625 C 3.632812 0.15625 2.59375 -0.242188 1.8125 -1.046875 C 1.039062 -1.859375 0.65625 -2.953125 0.65625 -4.328125 C 0.65625 -5.734375 1.035156 -6.828125 1.796875 -7.609375 C 2.554688 -8.390625 3.617188 -8.78125 4.984375 -8.78125 C 5.835938 -8.78125 6.585938 -8.597656 7.234375 -8.234375 C 7.878906 -7.878906 8.378906 -7.363281 8.734375 -6.6875 C 9.085938 -6.019531 9.265625 -5.234375 9.265625 -4.328125 Z M 3.671875 -4.328125 C 3.671875 -3.585938 3.769531 -3.023438 3.96875 -2.640625 C 4.164062 -2.253906 4.5 -2.0625 4.96875 -2.0625 C 5.4375 -2.0625 5.765625 -2.253906 5.953125 -2.640625 C 6.140625 -3.023438 6.234375 -3.585938 6.234375 -4.328125 C 6.234375 -5.066406 6.132812 -5.625 5.9375 -6 C 5.75 -6.375 5.421875 -6.5625 4.953125 -6.5625 C 4.492188 -6.5625 4.164062 -6.375 3.96875 -6 C 3.769531 -5.625 3.671875 -5.066406 3.671875 -4.328125 Z M 3.671875 -4.328125 "/></g></g><g transform="translate(318.606471, 148.728063)"><g/></g><g transform="translate(322.655606, 148.728063)"><g><path d="M 6.46875 0 L 6.46875 -4.703125 C 6.46875 -5.273438 6.382812 -5.707031 6.21875 -6 C 6.0625 -6.289062 5.796875 -6.4375 5.421875 -6.4375 C 4.921875 -6.4375 4.554688 -6.234375 4.328125 -5.828125 C 4.109375 -5.429688 4 -4.75 4 -3.78125 L 4 0 L 1.03125 0 L 1.03125 -8.625 L 3.28125 -8.625 L 3.640625 -7.5625 L 3.828125 -7.5625 C 4.078125 -7.96875 4.425781 -8.269531 4.875 -8.46875 C 5.320312 -8.675781 5.835938 -8.78125 6.421875 -8.78125 C 7.378906 -8.78125 8.125 -8.503906 8.65625 -7.953125 C 9.1875 -7.398438 9.453125 -6.617188 9.453125 -5.609375 L 9.453125 0 Z M 6.46875 0 "/></g></g><g transform="translate(333.098112, 148.728063)"><g><path d="M 9.265625 -4.328125 C 9.265625 -2.921875 8.882812 -1.820312 8.125 -1.03125 C 7.363281 -0.238281 6.300781 0.15625 4.9375 0.15625 C 3.632812 0.15625 2.59375 -0.242188 1.8125 -1.046875 C 1.039062 -1.859375 0.65625 -2.953125 0.65625 -4.328125 C 0.65625 -5.734375 1.035156 -6.828125 1.796875 -7.609375 C 2.554688 -8.390625 3.617188 -8.78125 4.984375 -8.78125 C 5.835938 -8.78125 6.585938 -8.597656 7.234375 -8.234375 C 7.878906 -7.878906 8.378906 -7.363281 8.734375 -6.6875 C 9.085938 -6.019531 9.265625 -5.234375 9.265625 -4.328125 Z M 3.671875 -4.328125 C 3.671875 -3.585938 3.769531 -3.023438 3.96875 -2.640625 C 4.164062 -2.253906 4.5 -2.0625 4.96875 -2.0625 C 5.4375 -2.0625 5.765625 -2.253906 5.953125 -2.640625 C 6.140625 -3.023438 6.234375 -3.585938 6.234375 -4.328125 C 6.234375 -5.066406 6.132812 -5.625 5.9375 -6 C 5.75 -6.375 5.421875 -6.5625 4.953125 -6.5625 C 4.492188 -6.5625 4.164062 -6.375 3.96875 -6 C 3.769531 -5.625 3.671875 -5.066406 3.671875 -4.328125 Z M 3.671875 -4.328125 "/></g></g><g transform="translate(343.03067, 148.728063)"><g><path d="M 7.6875 -2.65625 C 7.6875 -1.726562 7.367188 -1.023438 6.734375 -0.546875 C 6.109375 -0.078125 5.207031 0.15625 4.03125 0.15625 C 3.394531 0.15625 2.835938 0.117188 2.359375 0.046875 C 1.890625 -0.015625 1.410156 -0.140625 0.921875 -0.328125 L 0.921875 -2.703125 C 1.378906 -2.503906 1.882812 -2.335938 2.4375 -2.203125 C 2.988281 -2.078125 3.476562 -2.015625 3.90625 -2.015625 C 4.550781 -2.015625 4.875 -2.160156 4.875 -2.453125 C 4.875 -2.609375 4.785156 -2.742188 4.609375 -2.859375 C 4.429688 -2.972656 3.90625 -3.207031 3.03125 -3.5625 C 2.238281 -3.882812 1.6875 -4.25 1.375 -4.65625 C 1.0625 -5.070312 0.90625 -5.597656 0.90625 -6.234375 C 0.90625 -7.035156 1.210938 -7.660156 1.828125 -8.109375 C 2.453125 -8.554688 3.332031 -8.78125 4.46875 -8.78125 C 5.03125 -8.78125 5.5625 -8.71875 6.0625 -8.59375 C 6.5625 -8.46875 7.082031 -8.285156 7.625 -8.046875 L 6.8125 -6.125 C 6.414062 -6.300781 5.992188 -6.453125 5.546875 -6.578125 C 5.109375 -6.703125 4.753906 -6.765625 4.484375 -6.765625 C 3.992188 -6.765625 3.75 -6.644531 3.75 -6.40625 C 3.75 -6.257812 3.832031 -6.132812 4 -6.03125 C 4.164062 -5.925781 4.65625 -5.710938 5.46875 -5.390625 C 6.070312 -5.148438 6.519531 -4.910156 6.8125 -4.671875 C 7.113281 -4.429688 7.332031 -4.148438 7.46875 -3.828125 C 7.613281 -3.503906 7.6875 -3.113281 7.6875 -2.65625 Z M 7.6875 -2.65625 "/></g></g><g transform="translate(351.342053, 148.728063)"><g><path d="M 7.6875 -2.65625 C 7.6875 -1.726562 7.367188 -1.023438 6.734375 -0.546875 C 6.109375 -0.078125 5.207031 0.15625 4.03125 0.15625 C 3.394531 0.15625 2.835938 0.117188 2.359375 0.046875 C 1.890625 -0.015625 1.410156 -0.140625 0.921875 -0.328125 L 0.921875 -2.703125 C 1.378906 -2.503906 1.882812 -2.335938 2.4375 -2.203125 C 2.988281 -2.078125 3.476562 -2.015625 3.90625 -2.015625 C 4.550781 -2.015625 4.875 -2.160156 4.875 -2.453125 C 4.875 -2.609375 4.785156 -2.742188 4.609375 -2.859375 C 4.429688 -2.972656 3.90625 -3.207031 3.03125 -3.5625 C 2.238281 -3.882812 1.6875 -4.25 1.375 -4.65625 C 1.0625 -5.070312 0.90625 -5.597656 0.90625 -6.234375 C 0.90625 -7.035156 1.210938 -7.660156 1.828125 -8.109375 C 2.453125 -8.554688 3.332031 -8.78125 4.46875 -8.78125 C 5.03125 -8.78125 5.5625 -8.71875 6.0625 -8.59375 C 6.5625 -8.46875 7.082031 -8.285156 7.625 -8.046875 L 6.8125 -6.125 C 6.414062 -6.300781 5.992188 -6.453125 5.546875 -6.578125 C 5.109375 -6.703125 4.753906 -6.765625 4.484375 -6.765625 C 3.992188 -6.765625 3.75 -6.644531 3.75 -6.40625 C 3.75 -6.257812 3.832031 -6.132812 4 -6.03125 C 4.164062 -5.925781 4.65625 -5.710938 5.46875 -5.390625 C 6.070312 -5.148438 6.519531 -4.910156 6.8125 -4.671875 C 7.113281 -4.429688 7.332031 -4.148438 7.46875 -3.828125 C 7.613281 -3.503906 7.6875 -3.113281 7.6875 -2.65625 Z M 7.6875 -2.65625 "/></g></g><g transform="translate(359.653435, 148.728063)"><g><path d="M 9.265625 -4.328125 C 9.265625 -2.921875 8.882812 -1.820312 8.125 -1.03125 C 7.363281 -0.238281 6.300781 0.15625 4.9375 0.15625 C 3.632812 0.15625 2.59375 -0.242188 1.8125 -1.046875 C 1.039062 -1.859375 0.65625 -2.953125 0.65625 -4.328125 C 0.65625 -5.734375 1.035156 -6.828125 1.796875 -7.609375 C 2.554688 -8.390625 3.617188 -8.78125 4.984375 -8.78125 C 5.835938 -8.78125 6.585938 -8.597656 7.234375 -8.234375 C 7.878906 -7.878906 8.378906 -7.363281 8.734375 -6.6875 C 9.085938 -6.019531 9.265625 -5.234375 9.265625 -4.328125 Z M 3.671875 -4.328125 C 3.671875 -3.585938 3.769531 -3.023438 3.96875 -2.640625 C 4.164062 -2.253906 4.5 -2.0625 4.96875 -2.0625 C 5.4375 -2.0625 5.765625 -2.253906 5.953125 -2.640625 C 6.140625 -3.023438 6.234375 -3.585938 6.234375 -4.328125 C 6.234375 -5.066406 6.132812 -5.625 5.9375 -6 C 5.75 -6.375 5.421875 -6.5625 4.953125 -6.5625 C 4.492188 -6.5625 4.164062 -6.375 3.96875 -6 C 3.769531 -5.625 3.671875 -5.066406 3.671875 -4.328125 Z M 3.671875 -4.328125 "/></g></g></g><g fill="#ffffff" fill-opacity="1"><g transform="translate(208.118295, 188.993113)"><g><path d="M 1.453125 0.265625 L 1.453125 -8.578125 L 10.25 -8.578125 L 10.25 0.265625 Z M 1.453125 0.265625 "/></g></g><g transform="translate(219.8226, 188.993113)"><g/></g></g><g fill="#ffffff" fill-opacity="1"><g transform="translate(219.8226, 188.993113)"><g><path d="M 6.3125 -9.046875 C 5.582031 -9.046875 5.007812 -8.742188 4.59375 -8.140625 C 4.1875 -7.546875 3.984375 -6.71875 3.984375 -5.65625 C 3.984375 -3.457031 4.816406 -2.359375 6.484375 -2.359375 C 6.992188 -2.359375 7.484375 -2.425781 7.953125 -2.5625 C 8.421875 -2.707031 8.894531 -2.878906 9.375 -3.078125 L 9.375 -0.46875 C 8.425781 -0.0507812 7.351562 0.15625 6.15625 0.15625 C 4.425781 0.15625 3.101562 -0.34375 2.1875 -1.34375 C 1.269531 -2.34375 0.8125 -3.785156 0.8125 -5.671875 C 0.8125 -6.859375 1.03125 -7.894531 1.46875 -8.78125 C 1.914062 -9.675781 2.554688 -10.363281 3.390625 -10.84375 C 4.234375 -11.332031 5.21875 -11.578125 6.34375 -11.578125 C 7.570312 -11.578125 8.75 -11.304688 9.875 -10.765625 L 8.9375 -8.34375 C 8.507812 -8.539062 8.085938 -8.707031 7.671875 -8.84375 C 7.253906 -8.976562 6.800781 -9.046875 6.3125 -9.046875 Z M 6.3125 -9.046875 "/></g></g><g transform="translate(230.192614, 188.993113)"><g><path d="M 9.5 -4.4375 C 9.5 -2.988281 9.109375 -1.859375 8.328125 -1.046875 C 7.554688 -0.242188 6.46875 0.15625 5.0625 0.15625 C 3.71875 0.15625 2.648438 -0.253906 1.859375 -1.078125 C 1.066406 -1.910156 0.671875 -3.03125 0.671875 -4.4375 C 0.671875 -5.882812 1.054688 -7.003906 1.828125 -7.796875 C 2.609375 -8.597656 3.703125 -9 5.109375 -9 C 5.984375 -9 6.75 -8.8125 7.40625 -8.4375 C 8.070312 -8.070312 8.585938 -7.546875 8.953125 -6.859375 C 9.316406 -6.171875 9.5 -5.363281 9.5 -4.4375 Z M 3.765625 -4.4375 C 3.765625 -3.675781 3.863281 -3.097656 4.0625 -2.703125 C 4.269531 -2.304688 4.613281 -2.109375 5.09375 -2.109375 C 5.570312 -2.109375 5.90625 -2.304688 6.09375 -2.703125 C 6.289062 -3.097656 6.390625 -3.675781 6.390625 -4.4375 C 6.390625 -5.195312 6.289062 -5.769531 6.09375 -6.15625 C 5.894531 -6.539062 5.554688 -6.734375 5.078125 -6.734375 C 4.609375 -6.734375 4.269531 -6.539062 4.0625 -6.15625 C 3.863281 -5.769531 3.765625 -5.195312 3.765625 -4.4375 Z M 3.765625 -4.4375 "/></g></g><g transform="translate(240.37536, 188.993113)"><g><path d="M 6.640625 0 L 6.640625 -4.828125 C 6.640625 -5.410156 6.550781 -5.851562 6.375 -6.15625 C 6.207031 -6.457031 5.9375 -6.609375 5.5625 -6.609375 C 5.050781 -6.609375 4.679688 -6.398438 4.453125 -5.984375 C 4.222656 -5.578125 4.109375 -4.875 4.109375 -3.875 L 4.109375 0 L 1.046875 0 L 1.046875 -8.84375 L 3.359375 -8.84375 L 3.734375 -7.75 L 3.921875 -7.75 C 4.179688 -8.164062 4.539062 -8.476562 5 -8.6875 C 5.457031 -8.894531 5.988281 -9 6.59375 -9 C 7.5625 -9 8.316406 -8.710938 8.859375 -8.140625 C 9.410156 -7.578125 9.6875 -6.78125 9.6875 -5.75 L 9.6875 0 Z M 6.640625 0 "/></g></g><g transform="translate(251.080897, 188.993113)"><g><path d="M 3.796875 0.15625 C 3.171875 0.15625 2.617188 -0.0195312 2.140625 -0.375 C 1.671875 -0.738281 1.304688 -1.269531 1.046875 -1.96875 C 0.796875 -2.664062 0.671875 -3.476562 0.671875 -4.40625 C 0.671875 -5.84375 0.957031 -6.96875 1.53125 -7.78125 C 2.113281 -8.59375 2.910156 -9 3.921875 -9 C 4.410156 -9 4.84375 -8.898438 5.21875 -8.703125 C 5.59375 -8.503906 5.929688 -8.171875 6.234375 -7.703125 L 6.296875 -7.703125 C 6.203125 -8.390625 6.15625 -9.082031 6.15625 -9.78125 L 6.15625 -12.140625 L 9.21875 -12.140625 L 9.21875 0 L 6.921875 0 L 6.265625 -1.109375 L 6.15625 -1.109375 C 5.625 -0.265625 4.835938 0.15625 3.796875 0.15625 Z M 5.046875 -2.25 C 5.535156 -2.25 5.878906 -2.398438 6.078125 -2.703125 C 6.285156 -3.015625 6.394531 -3.492188 6.40625 -4.140625 L 6.40625 -4.375 C 6.40625 -5.15625 6.289062 -5.710938 6.0625 -6.046875 C 5.84375 -6.378906 5.492188 -6.546875 5.015625 -6.546875 C 4.617188 -6.546875 4.304688 -6.351562 4.078125 -5.96875 C 3.859375 -5.59375 3.75 -5.054688 3.75 -4.359375 C 3.75 -3.671875 3.859375 -3.144531 4.078125 -2.78125 C 4.304688 -2.425781 4.628906 -2.25 5.046875 -2.25 Z M 5.046875 -2.25 "/></g></g><g transform="translate(261.357277, 188.993113)"><g><path d="M 4.125 0 L 1.0625 0 L 1.0625 -8.84375 L 4.125 -8.84375 Z M 0.984375 -11.046875 C 0.984375 -11.503906 1.109375 -11.84375 1.359375 -12.0625 C 1.617188 -12.289062 2.035156 -12.40625 2.609375 -12.40625 C 3.171875 -12.40625 3.582031 -12.289062 3.84375 -12.0625 C 4.101562 -11.832031 4.234375 -11.492188 4.234375 -11.046875 C 4.234375 -10.148438 3.691406 -9.703125 2.609375 -9.703125 C 1.523438 -9.703125 0.984375 -10.148438 0.984375 -11.046875 Z M 0.984375 -11.046875 "/></g></g><g transform="translate(266.553988, 188.993113)"><g><path d="M 5.078125 0.15625 C 3.628906 0.15625 2.53125 -0.234375 1.78125 -1.015625 C 1.039062 -1.796875 0.671875 -2.914062 0.671875 -4.375 C 0.671875 -5.84375 1.070312 -6.976562 1.875 -7.78125 C 2.6875 -8.59375 3.835938 -9 5.328125 -9 C 6.347656 -9 7.3125 -8.773438 8.21875 -8.328125 L 7.328125 -6.078125 C 6.953125 -6.234375 6.609375 -6.359375 6.296875 -6.453125 C 5.984375 -6.554688 5.660156 -6.609375 5.328125 -6.609375 C 4.828125 -6.609375 4.441406 -6.414062 4.171875 -6.03125 C 3.898438 -5.644531 3.765625 -5.097656 3.765625 -4.390625 C 3.765625 -2.972656 4.289062 -2.265625 5.34375 -2.265625 C 6.238281 -2.265625 7.097656 -2.523438 7.921875 -3.046875 L 7.921875 -0.625 C 7.128906 -0.101562 6.179688 0.15625 5.078125 0.15625 Z M 5.078125 0.15625 "/></g></g><g transform="translate(275.168357, 188.993113)"><g><path d="M 4.125 0 L 1.0625 0 L 1.0625 -8.84375 L 4.125 -8.84375 Z M 0.984375 -11.046875 C 0.984375 -11.503906 1.109375 -11.84375 1.359375 -12.0625 C 1.617188 -12.289062 2.035156 -12.40625 2.609375 -12.40625 C 3.171875 -12.40625 3.582031 -12.289062 3.84375 -12.0625 C 4.101562 -11.832031 4.234375 -11.492188 4.234375 -11.046875 C 4.234375 -10.148438 3.691406 -9.703125 2.609375 -9.703125 C 1.523438 -9.703125 0.984375 -10.148438 0.984375 -11.046875 Z M 0.984375 -11.046875 "/></g></g><g transform="translate(280.365068, 188.993113)"><g><path d="M 9.5 -4.4375 C 9.5 -2.988281 9.109375 -1.859375 8.328125 -1.046875 C 7.554688 -0.242188 6.46875 0.15625 5.0625 0.15625 C 3.71875 0.15625 2.648438 -0.253906 1.859375 -1.078125 C 1.066406 -1.910156 0.671875 -3.03125 0.671875 -4.4375 C 0.671875 -5.882812 1.054688 -7.003906 1.828125 -7.796875 C 2.609375 -8.597656 3.703125 -9 5.109375 -9 C 5.984375 -9 6.75 -8.8125 7.40625 -8.4375 C 8.070312 -8.070312 8.585938 -7.546875 8.953125 -6.859375 C 9.316406 -6.171875 9.5 -5.363281 9.5 -4.4375 Z M 3.765625 -4.4375 C 3.765625 -3.675781 3.863281 -3.097656 4.0625 -2.703125 C 4.269531 -2.304688 4.613281 -2.109375 5.09375 -2.109375 C 5.570312 -2.109375 5.90625 -2.304688 6.09375 -2.703125 C 6.289062 -3.097656 6.390625 -3.675781 6.390625 -4.4375 C 6.390625 -5.195312 6.289062 -5.769531 6.09375 -6.15625 C 5.894531 -6.539062 5.554688 -6.734375 5.078125 -6.734375 C 4.609375 -6.734375 4.269531 -6.539062 4.0625 -6.15625 C 3.863281 -5.769531 3.765625 -5.195312 3.765625 -4.4375 Z M 3.765625 -4.4375 "/></g></g><g transform="translate(290.547813, 188.993113)"><g><path d="M 6.640625 0 L 6.640625 -4.828125 C 6.640625 -5.410156 6.550781 -5.851562 6.375 -6.15625 C 6.207031 -6.457031 5.9375 -6.609375 5.5625 -6.609375 C 5.050781 -6.609375 4.679688 -6.398438 4.453125 -5.984375 C 4.222656 -5.578125 4.109375 -4.875 4.109375 -3.875 L 4.109375 0 L 1.046875 0 L 1.046875 -8.84375 L 3.359375 -8.84375 L 3.734375 -7.75 L 3.921875 -7.75 C 4.179688 -8.164062 4.539062 -8.476562 5 -8.6875 C 5.457031 -8.894531 5.988281 -9 6.59375 -9 C 7.5625 -9 8.316406 -8.710938 8.859375 -8.140625 C 9.410156 -7.578125 9.6875 -6.78125 9.6875 -5.75 L 9.6875 0 Z M 6.640625 0 "/></g></g><g transform="translate(301.253351, 188.993113)"><g><path d="M 6.828125 0 L 6.234375 -1.171875 L 6.171875 -1.171875 C 5.765625 -0.660156 5.347656 -0.3125 4.921875 -0.125 C 4.492188 0.0625 3.941406 0.15625 3.265625 0.15625 C 2.429688 0.15625 1.773438 -0.09375 1.296875 -0.59375 C 0.816406 -1.09375 0.578125 -1.796875 0.578125 -2.703125 C 0.578125 -3.640625 0.90625 -4.335938 1.5625 -4.796875 C 2.21875 -5.265625 3.164062 -5.523438 4.40625 -5.578125 L 5.890625 -5.625 L 5.890625 -5.75 C 5.890625 -6.476562 5.53125 -6.84375 4.8125 -6.84375 C 4.164062 -6.84375 3.34375 -6.625 2.34375 -6.1875 L 1.46875 -8.203125 C 2.5 -8.734375 3.800781 -9 5.375 -9 C 6.507812 -9 7.382812 -8.71875 8 -8.15625 C 8.625 -7.59375 8.9375 -6.804688 8.9375 -5.796875 L 8.9375 0 Z M 4.5625 -2 C 4.925781 -2 5.238281 -2.113281 5.5 -2.34375 C 5.769531 -2.582031 5.90625 -2.890625 5.90625 -3.265625 L 5.90625 -3.953125 L 5.203125 -3.921875 C 4.191406 -3.878906 3.6875 -3.507812 3.6875 -2.8125 C 3.6875 -2.269531 3.976562 -2 4.5625 -2 Z M 4.5625 -2 "/></g></g><g transform="translate(311.209813, 188.993113)"><g><path d="M 11.90625 0 L 11.90625 -4.8125 C 11.90625 -5.40625 11.820312 -5.851562 11.65625 -6.15625 C 11.5 -6.457031 11.242188 -6.609375 10.890625 -6.609375 C 10.421875 -6.609375 10.078125 -6.40625 9.859375 -6 C 9.640625 -5.601562 9.53125 -4.976562 9.53125 -4.125 L 9.53125 0 L 6.46875 0 L 6.46875 -4.8125 C 6.46875 -5.40625 6.390625 -5.851562 6.234375 -6.15625 C 6.078125 -6.457031 5.828125 -6.609375 5.484375 -6.609375 C 5.003906 -6.609375 4.65625 -6.394531 4.4375 -5.96875 C 4.21875 -5.539062 4.109375 -4.84375 4.109375 -3.875 L 4.109375 0 L 1.046875 0 L 1.046875 -8.84375 L 3.359375 -8.84375 L 3.734375 -7.75 L 3.921875 -7.75 C 4.148438 -8.15625 4.488281 -8.460938 4.9375 -8.671875 C 5.382812 -8.890625 5.890625 -9 6.453125 -9 C 7.722656 -9 8.617188 -8.613281 9.140625 -7.84375 L 9.375 -7.84375 C 9.625 -8.195312 9.972656 -8.476562 10.421875 -8.6875 C 10.867188 -8.894531 11.359375 -9 11.890625 -9 C 12.941406 -9 13.71875 -8.726562 14.21875 -8.1875 C 14.71875 -7.65625 14.96875 -6.84375 14.96875 -5.75 L 14.96875 0 Z M 11.90625 0 "/></g></g><g transform="translate(327.190091, 188.993113)"><g><path d="M 5.328125 0.15625 C 3.847656 0.15625 2.703125 -0.234375 1.890625 -1.015625 C 1.078125 -1.796875 0.671875 -2.910156 0.671875 -4.359375 C 0.671875 -5.859375 1.046875 -7.003906 1.796875 -7.796875 C 2.554688 -8.597656 3.632812 -9 5.03125 -9 C 6.363281 -9 7.390625 -8.648438 8.109375 -7.953125 C 8.835938 -7.265625 9.203125 -6.265625 9.203125 -4.953125 L 9.203125 -3.59375 L 3.75 -3.59375 C 3.769531 -3.101562 3.953125 -2.71875 4.296875 -2.4375 C 4.640625 -2.15625 5.101562 -2.015625 5.6875 -2.015625 C 6.226562 -2.015625 6.722656 -2.0625 7.171875 -2.15625 C 7.617188 -2.257812 8.101562 -2.4375 8.625 -2.6875 L 8.625 -0.484375 C 8.15625 -0.242188 7.664062 -0.078125 7.15625 0.015625 C 6.644531 0.109375 6.035156 0.15625 5.328125 0.15625 Z M 5.140625 -6.921875 C 4.785156 -6.921875 4.484375 -6.804688 4.234375 -6.578125 C 3.992188 -6.359375 3.851562 -6.003906 3.8125 -5.515625 L 6.4375 -5.515625 C 6.425781 -5.941406 6.304688 -6.28125 6.078125 -6.53125 C 5.847656 -6.789062 5.535156 -6.921875 5.140625 -6.921875 Z M 5.140625 -6.921875 "/></g></g><g transform="translate(337.068524, 188.993113)"><g><path d="M 6.640625 0 L 6.640625 -4.828125 C 6.640625 -5.410156 6.550781 -5.851562 6.375 -6.15625 C 6.207031 -6.457031 5.9375 -6.609375 5.5625 -6.609375 C 5.050781 -6.609375 4.679688 -6.398438 4.453125 -5.984375 C 4.222656 -5.578125 4.109375 -4.875 4.109375 -3.875 L 4.109375 0 L 1.046875 0 L 1.046875 -8.84375 L 3.359375 -8.84375 L 3.734375 -7.75 L 3.921875 -7.75 C 4.179688 -8.164062 4.539062 -8.476562 5 -8.6875 C 5.457031 -8.894531 5.988281 -9 6.59375 -9 C 7.5625 -9 8.316406 -8.710938 8.859375 -8.140625 C 9.410156 -7.578125 9.6875 -6.78125 9.6875 -5.75 L 9.6875 0 Z M 6.640625 0 "/></g></g><g transform="translate(347.774062, 188.993113)"><g><path d="M 5.390625 -2.25 C 5.796875 -2.25 6.285156 -2.351562 6.859375 -2.5625 L 6.859375 -0.328125 C 6.453125 -0.148438 6.0625 -0.0234375 5.6875 0.046875 C 5.3125 0.117188 4.875 0.15625 4.375 0.15625 C 3.351562 0.15625 2.613281 -0.09375 2.15625 -0.59375 C 1.707031 -1.09375 1.484375 -1.863281 1.484375 -2.90625 L 1.484375 -6.5625 L 0.40625 -6.5625 L 0.40625 -7.796875 L 1.765625 -8.75 L 2.5625 -10.609375 L 4.5625 -10.609375 L 4.5625 -8.84375 L 6.734375 -8.84375 L 6.734375 -6.5625 L 4.5625 -6.5625 L 4.5625 -3.109375 C 4.5625 -2.535156 4.835938 -2.25 5.390625 -2.25 Z M 5.390625 -2.25 "/></g></g><g transform="translate(355.124365, 188.993113)"><g><path d="M 9.5 -4.4375 C 9.5 -2.988281 9.109375 -1.859375 8.328125 -1.046875 C 7.554688 -0.242188 6.46875 0.15625 5.0625 0.15625 C 3.71875 0.15625 2.648438 -0.253906 1.859375 -1.078125 C 1.066406 -1.910156 0.671875 -3.03125 0.671875 -4.4375 C 0.671875 -5.882812 1.054688 -7.003906 1.828125 -7.796875 C 2.609375 -8.597656 3.703125 -9 5.109375 -9 C 5.984375 -9 6.75 -8.8125 7.40625 -8.4375 C 8.070312 -8.070312 8.585938 -7.546875 8.953125 -6.859375 C 9.316406 -6.171875 9.5 -5.363281 9.5 -4.4375 Z M 3.765625 -4.4375 C 3.765625 -3.675781 3.863281 -3.097656 4.0625 -2.703125 C 4.269531 -2.304688 4.613281 -2.109375 5.09375 -2.109375 C 5.570312 -2.109375 5.90625 -2.304688 6.09375 -2.703125 C 6.289062 -3.097656 6.390625 -3.675781 6.390625 -4.4375 C 6.390625 -5.195312 6.289062 -5.769531 6.09375 -6.15625 C 5.894531 -6.539062 5.554688 -6.734375 5.078125 -6.734375 C 4.609375 -6.734375 4.269531 -6.539062 4.0625 -6.15625 C 3.863281 -5.769531 3.765625 -5.195312 3.765625 -4.4375 Z M 3.765625 -4.4375 "/></g></g><g transform="translate(365.30711, 188.993113)"><g/></g></g><g fill="#ffffff" fill-opacity="1"><g transform="translate(369.450434, 188.993113)"><g><path d="M 6.453125 -6.5625 L 4.578125 -6.5625 L 4.578125 0 L 1.515625 0 L 1.515625 -6.5625 L 0.34375 -6.5625 L 0.34375 -8.046875 L 1.578125 -8.796875 L 1.578125 -8.953125 C 1.578125 -10.117188 1.816406 -10.957031 2.296875 -11.46875 C 2.773438 -11.976562 3.539062 -12.234375 4.59375 -12.234375 C 5 -12.234375 5.378906 -12.203125 5.734375 -12.140625 C 6.097656 -12.078125 6.519531 -11.96875 7 -11.8125 L 6.34375 -9.828125 C 5.96875 -9.929688 5.601562 -9.984375 5.25 -9.984375 C 5.007812 -9.984375 4.835938 -9.910156 4.734375 -9.765625 C 4.628906 -9.628906 4.578125 -9.398438 4.578125 -9.078125 L 4.578125 -8.84375 L 6.453125 -8.84375 Z M 6.453125 -6.5625 "/></g></g><g transform="translate(376.051662, 188.993113)"><g><path d="M 4.125 0 L 1.0625 0 L 1.0625 -8.84375 L 4.125 -8.84375 Z M 0.84375 -9.6875 L 0.84375 -9.90625 C 1.644531 -10.769531 2.148438 -11.328125 2.359375 -11.578125 C 2.578125 -11.828125 2.757812 -12.050781 2.90625 -12.25 L 6.25 -12.25 L 6.25 -12.078125 C 5.832031 -11.742188 5.257812 -11.316406 4.53125 -10.796875 C 3.800781 -10.285156 3.25 -9.914062 2.875 -9.6875 Z M 0.84375 -9.6875 "/></g></g><g transform="translate(381.248373, 188.993113)"><g><path d="M 7.890625 -2.71875 C 7.890625 -1.769531 7.566406 -1.050781 6.921875 -0.5625 C 6.273438 -0.0820312 5.347656 0.15625 4.140625 0.15625 C 3.484375 0.15625 2.910156 0.117188 2.421875 0.046875 C 1.941406 -0.015625 1.445312 -0.140625 0.9375 -0.328125 L 0.9375 -2.78125 C 1.414062 -2.570312 1.9375 -2.398438 2.5 -2.265625 C 3.0625 -2.128906 3.566406 -2.0625 4.015625 -2.0625 C 4.671875 -2.0625 5 -2.210938 5 -2.515625 C 5 -2.671875 4.90625 -2.804688 4.71875 -2.921875 C 4.539062 -3.046875 4.003906 -3.285156 3.109375 -3.640625 C 2.296875 -3.972656 1.726562 -4.351562 1.40625 -4.78125 C 1.082031 -5.207031 0.921875 -5.742188 0.921875 -6.390625 C 0.921875 -7.210938 1.238281 -7.851562 1.875 -8.3125 C 2.507812 -8.769531 3.410156 -9 4.578125 -9 C 5.160156 -9 5.707031 -8.929688 6.21875 -8.796875 C 6.726562 -8.671875 7.257812 -8.488281 7.8125 -8.25 L 6.984375 -6.28125 C 6.578125 -6.46875 6.144531 -6.625 5.6875 -6.75 C 5.238281 -6.875 4.875 -6.9375 4.59375 -6.9375 C 4.09375 -6.9375 3.84375 -6.816406 3.84375 -6.578125 C 3.84375 -6.421875 3.925781 -6.289062 4.09375 -6.1875 C 4.269531 -6.082031 4.773438 -5.863281 5.609375 -5.53125 C 6.234375 -5.28125 6.695312 -5.03125 7 -4.78125 C 7.300781 -4.539062 7.523438 -4.253906 7.671875 -3.921875 C 7.816406 -3.585938 7.890625 -3.1875 7.890625 -2.71875 Z M 7.890625 -2.71875 "/></g></g><g transform="translate(389.769107, 188.993113)"><g><path d="M 4.125 0 L 1.0625 0 L 1.0625 -8.84375 L 4.125 -8.84375 Z M 0.984375 -11.046875 C 0.984375 -11.503906 1.109375 -11.84375 1.359375 -12.0625 C 1.617188 -12.289062 2.035156 -12.40625 2.609375 -12.40625 C 3.171875 -12.40625 3.582031 -12.289062 3.84375 -12.0625 C 4.101562 -11.832031 4.234375 -11.492188 4.234375 -11.046875 C 4.234375 -10.148438 3.691406 -9.703125 2.609375 -9.703125 C 1.523438 -9.703125 0.984375 -10.148438 0.984375 -11.046875 Z M 0.984375 -11.046875 "/></g></g><g transform="translate(394.965819, 188.993113)"><g><path d="M 5.078125 0.15625 C 3.628906 0.15625 2.53125 -0.234375 1.78125 -1.015625 C 1.039062 -1.796875 0.671875 -2.914062 0.671875 -4.375 C 0.671875 -5.84375 1.070312 -6.976562 1.875 -7.78125 C 2.6875 -8.59375 3.835938 -9 5.328125 -9 C 6.347656 -9 7.3125 -8.773438 8.21875 -8.328125 L 7.328125 -6.078125 C 6.953125 -6.234375 6.609375 -6.359375 6.296875 -6.453125 C 5.984375 -6.554688 5.660156 -6.609375 5.328125 -6.609375 C 4.828125 -6.609375 4.441406 -6.414062 4.171875 -6.03125 C 3.898438 -5.644531 3.765625 -5.097656 3.765625 -4.390625 C 3.765625 -2.972656 4.289062 -2.265625 5.34375 -2.265625 C 6.238281 -2.265625 7.097656 -2.523438 7.921875 -3.046875 L 7.921875 -0.625 C 7.128906 -0.101562 6.179688 0.15625 5.078125 0.15625 Z M 5.078125 0.15625 "/></g></g><g transform="translate(403.580187, 188.993113)"><g><path d="M 9.5 -4.4375 C 9.5 -2.988281 9.109375 -1.859375 8.328125 -1.046875 C 7.554688 -0.242188 6.46875 0.15625 5.0625 0.15625 C 3.71875 0.15625 2.648438 -0.253906 1.859375 -1.078125 C 1.066406 -1.910156 0.671875 -3.03125 0.671875 -4.4375 C 0.671875 -5.882812 1.054688 -7.003906 1.828125 -7.796875 C 2.609375 -8.597656 3.703125 -9 5.109375 -9 C 5.984375 -9 6.75 -8.8125 7.40625 -8.4375 C 8.070312 -8.070312 8.585938 -7.546875 8.953125 -6.859375 C 9.316406 -6.171875 9.5 -5.363281 9.5 -4.4375 Z M 3.765625 -4.4375 C 3.765625 -3.675781 3.863281 -3.097656 4.0625 -2.703125 C 4.269531 -2.304688 4.613281 -2.109375 5.09375 -2.109375 C 5.570312 -2.109375 5.90625 -2.304688 6.09375 -2.703125 C 6.289062 -3.097656 6.390625 -3.675781 6.390625 -4.4375 C 6.390625 -5.195312 6.289062 -5.769531 6.09375 -6.15625 C 5.894531 -6.539062 5.554688 -6.734375 5.078125 -6.734375 C 4.609375 -6.734375 4.269531 -6.539062 4.0625 -6.15625 C 3.863281 -5.769531 3.765625 -5.195312 3.765625 -4.4375 Z M 3.765625 -4.4375 "/></g></g></g><g fill="#ffffff" fill-opacity="1"><g transform="translate(413.755135, 188.993113)"><g/></g></g><g fill="#ffffff" fill-opacity="1"><g transform="translate(282.13632, 210.965995)"><g><path d="M 1.453125 0.265625 L 1.453125 -8.578125 L 10.25 -8.578125 L 10.25 0.265625 Z M 1.453125 0.265625 "/></g></g><g transform="translate(293.840625, 210.965995)"><g/></g></g><g fill="#ffffff" fill-opacity="1"><g transform="translate(293.840625, 210.965995)"><g><path d="M 8.6875 -3.46875 C 8.6875 -2.757812 8.507812 -2.128906 8.15625 -1.578125 C 7.800781 -1.023438 7.285156 -0.597656 6.609375 -0.296875 C 5.929688 0.00390625 5.132812 0.15625 4.21875 0.15625 C 3.457031 0.15625 2.816406 0.101562 2.296875 0 C 1.785156 -0.101562 1.253906 -0.289062 0.703125 -0.5625 L 0.703125 -3.3125 C 1.285156 -3.007812 1.894531 -2.769531 2.53125 -2.59375 C 3.164062 -2.425781 3.75 -2.34375 4.28125 -2.34375 C 4.738281 -2.34375 5.070312 -2.421875 5.28125 -2.578125 C 5.5 -2.742188 5.609375 -2.953125 5.609375 -3.203125 C 5.609375 -3.359375 5.566406 -3.492188 5.484375 -3.609375 C 5.398438 -3.722656 5.257812 -3.835938 5.0625 -3.953125 C 4.875 -4.078125 4.367188 -4.328125 3.546875 -4.703125 C 2.804688 -5.035156 2.25 -5.359375 1.875 -5.671875 C 1.5 -5.992188 1.222656 -6.359375 1.046875 -6.765625 C 0.867188 -7.179688 0.78125 -7.671875 0.78125 -8.234375 C 0.78125 -9.285156 1.160156 -10.101562 1.921875 -10.6875 C 2.691406 -11.28125 3.742188 -11.578125 5.078125 -11.578125 C 6.265625 -11.578125 7.46875 -11.300781 8.6875 -10.75 L 7.75 -8.375 C 6.6875 -8.863281 5.765625 -9.109375 4.984375 -9.109375 C 4.585938 -9.109375 4.296875 -9.035156 4.109375 -8.890625 C 3.929688 -8.753906 3.84375 -8.582031 3.84375 -8.375 C 3.84375 -8.144531 3.957031 -7.941406 4.1875 -7.765625 C 4.414062 -7.597656 5.046875 -7.28125 6.078125 -6.8125 C 7.054688 -6.363281 7.734375 -5.882812 8.109375 -5.375 C 8.492188 -4.875 8.6875 -4.238281 8.6875 -3.46875 Z M 8.6875 -3.46875 "/></g></g></g><g fill="#ffffff" fill-opacity="1"><g transform="translate(303.063617, 210.965995)"><g><path d="M 6.828125 0 L 6.234375 -1.171875 L 6.171875 -1.171875 C 5.765625 -0.660156 5.347656 -0.3125 4.921875 -0.125 C 4.492188 0.0625 3.941406 0.15625 3.265625 0.15625 C 2.429688 0.15625 1.773438 -0.09375 1.296875 -0.59375 C 0.816406 -1.09375 0.578125 -1.796875 0.578125 -2.703125 C 0.578125 -3.640625 0.90625 -4.335938 1.5625 -4.796875 C 2.21875 -5.265625 3.164062 -5.523438 4.40625 -5.578125 L 5.890625 -5.625 L 5.890625 -5.75 C 5.890625 -6.476562 5.53125 -6.84375 4.8125 -6.84375 C 4.164062 -6.84375 3.34375 -6.625 2.34375 -6.1875 L 1.46875 -8.203125 C 2.5 -8.734375 3.800781 -9 5.375 -9 C 6.507812 -9 7.382812 -8.71875 8 -8.15625 C 8.625 -7.59375 8.9375 -6.804688 8.9375 -5.796875 L 8.9375 0 Z M 4.5625 -2 C 4.925781 -2 5.238281 -2.113281 5.5 -2.34375 C 5.769531 -2.582031 5.90625 -2.890625 5.90625 -3.265625 L 5.90625 -3.953125 L 5.203125 -3.921875 C 4.191406 -3.878906 3.6875 -3.507812 3.6875 -2.8125 C 3.6875 -2.269531 3.976562 -2 4.5625 -2 Z M 4.5625 -2 "/></g></g><g transform="translate(313.020079, 210.965995)"><g><path d="M 7.359375 0 L 6.96875 -1.09375 L 6.796875 -1.09375 C 6.535156 -0.6875 6.175781 -0.375 5.71875 -0.15625 C 5.269531 0.0507812 4.738281 0.15625 4.125 0.15625 C 3.144531 0.15625 2.382812 -0.125 1.84375 -0.6875 C 1.300781 -1.25 1.03125 -2.046875 1.03125 -3.078125 L 1.03125 -8.84375 L 4.09375 -8.84375 L 4.09375 -4.015625 C 4.09375 -3.429688 4.171875 -2.988281 4.328125 -2.6875 C 4.492188 -2.394531 4.765625 -2.25 5.140625 -2.25 C 5.671875 -2.25 6.046875 -2.457031 6.265625 -2.875 C 6.492188 -3.289062 6.609375 -3.988281 6.609375 -4.96875 L 6.609375 -8.84375 L 9.65625 -8.84375 L 9.65625 0 Z M 3.671875 -9.6875 L 3.671875 -9.90625 C 4.472656 -10.769531 4.976562 -11.328125 5.1875 -11.578125 C 5.40625 -11.828125 5.585938 -12.050781 5.734375 -12.25 L 9.078125 -12.25 L 9.078125 -12.078125 C 8.660156 -11.742188 8.085938 -11.316406 7.359375 -10.796875 C 6.628906 -10.285156 6.078125 -9.914062 5.703125 -9.6875 Z M 3.671875 -9.6875 "/></g></g><g transform="translate(323.725616, 210.965995)"><g><path d="M 3.796875 0.15625 C 3.171875 0.15625 2.617188 -0.0195312 2.140625 -0.375 C 1.671875 -0.738281 1.304688 -1.269531 1.046875 -1.96875 C 0.796875 -2.664062 0.671875 -3.476562 0.671875 -4.40625 C 0.671875 -5.84375 0.957031 -6.96875 1.53125 -7.78125 C 2.113281 -8.59375 2.910156 -9 3.921875 -9 C 4.410156 -9 4.84375 -8.898438 5.21875 -8.703125 C 5.59375 -8.503906 5.929688 -8.171875 6.234375 -7.703125 L 6.296875 -7.703125 C 6.203125 -8.390625 6.15625 -9.082031 6.15625 -9.78125 L 6.15625 -12.140625 L 9.21875 -12.140625 L 9.21875 0 L 6.921875 0 L 6.265625 -1.109375 L 6.15625 -1.109375 C 5.625 -0.265625 4.835938 0.15625 3.796875 0.15625 Z M 5.046875 -2.25 C 5.535156 -2.25 5.878906 -2.398438 6.078125 -2.703125 C 6.285156 -3.015625 6.394531 -3.492188 6.40625 -4.140625 L 6.40625 -4.375 C 6.40625 -5.15625 6.289062 -5.710938 6.0625 -6.046875 C 5.84375 -6.378906 5.492188 -6.546875 5.015625 -6.546875 C 4.617188 -6.546875 4.304688 -6.351562 4.078125 -5.96875 C 3.859375 -5.59375 3.75 -5.054688 3.75 -4.359375 C 3.75 -3.671875 3.859375 -3.144531 4.078125 -2.78125 C 4.304688 -2.425781 4.628906 -2.25 5.046875 -2.25 Z M 5.046875 -2.25 "/></g></g><g transform="translate(334.001996, 210.965995)"><g><path d="M 5.328125 0.15625 C 3.847656 0.15625 2.703125 -0.234375 1.890625 -1.015625 C 1.078125 -1.796875 0.671875 -2.910156 0.671875 -4.359375 C 0.671875 -5.859375 1.046875 -7.003906 1.796875 -7.796875 C 2.554688 -8.597656 3.632812 -9 5.03125 -9 C 6.363281 -9 7.390625 -8.648438 8.109375 -7.953125 C 8.835938 -7.265625 9.203125 -6.265625 9.203125 -4.953125 L 9.203125 -3.59375 L 3.75 -3.59375 C 3.769531 -3.101562 3.953125 -2.71875 4.296875 -2.4375 C 4.640625 -2.15625 5.101562 -2.015625 5.6875 -2.015625 C 6.226562 -2.015625 6.722656 -2.0625 7.171875 -2.15625 C 7.617188 -2.257812 8.101562 -2.4375 8.625 -2.6875 L 8.625 -0.484375 C 8.15625 -0.242188 7.664062 -0.078125 7.15625 0.015625 C 6.644531 0.109375 6.035156 0.15625 5.328125 0.15625 Z M 5.140625 -6.921875 C 4.785156 -6.921875 4.484375 -6.804688 4.234375 -6.578125 C 3.992188 -6.359375 3.851562 -6.003906 3.8125 -5.515625 L 6.4375 -5.515625 C 6.425781 -5.941406 6.304688 -6.28125 6.078125 -6.53125 C 5.847656 -6.789062 5.535156 -6.921875 5.140625 -6.921875 Z M 5.140625 -6.921875 "/></g></g></g><g fill="#ffffff" fill-opacity="1"><g transform="translate(213.814391, 232.938877)"><g><path d="M 1.453125 0.265625 L 1.453125 -8.578125 L 10.25 -8.578125 L 10.25 0.265625 Z M 1.453125 0.265625 "/></g></g><g transform="translate(225.518696, 232.938877)"><g/></g></g><g fill="#ffffff" fill-opacity="1"><g transform="translate(225.518695, 232.938877)"><g><path d="M 10.921875 -5.953125 C 10.921875 -4.046875 10.394531 -2.578125 9.34375 -1.546875 C 8.300781 -0.515625 6.828125 0 4.921875 0 L 1.234375 0 L 1.234375 -11.40625 L 5.1875 -11.40625 C 7.019531 -11.40625 8.429688 -10.9375 9.421875 -10 C 10.421875 -9.0625 10.921875 -7.710938 10.921875 -5.953125 Z M 7.71875 -5.84375 C 7.71875 -6.882812 7.507812 -7.65625 7.09375 -8.15625 C 6.6875 -8.664062 6.0625 -8.921875 5.21875 -8.921875 L 4.3125 -8.921875 L 4.3125 -2.53125 L 5 -2.53125 C 5.9375 -2.53125 6.625 -2.800781 7.0625 -3.34375 C 7.5 -3.882812 7.71875 -4.71875 7.71875 -5.84375 Z M 7.71875 -5.84375 "/></g></g></g><g fill="#ffffff" fill-opacity="1"><g transform="translate(237.238606, 232.938877)"><g><path d="M 4.125 0 L 1.0625 0 L 1.0625 -8.84375 L 4.125 -8.84375 Z M 0.984375 -11.046875 C 0.984375 -11.503906 1.109375 -11.84375 1.359375 -12.0625 C 1.617188 -12.289062 2.035156 -12.40625 2.609375 -12.40625 C 3.171875 -12.40625 3.582031 -12.289062 3.84375 -12.0625 C 4.101562 -11.832031 4.234375 -11.492188 4.234375 -11.046875 C 4.234375 -10.148438 3.691406 -9.703125 2.609375 -9.703125 C 1.523438 -9.703125 0.984375 -10.148438 0.984375 -11.046875 Z M 0.984375 -11.046875 "/></g></g><g transform="translate(242.435317, 232.938877)"><g><path d="M 7.890625 -2.71875 C 7.890625 -1.769531 7.566406 -1.050781 6.921875 -0.5625 C 6.273438 -0.0820312 5.347656 0.15625 4.140625 0.15625 C 3.484375 0.15625 2.910156 0.117188 2.421875 0.046875 C 1.941406 -0.015625 1.445312 -0.140625 0.9375 -0.328125 L 0.9375 -2.78125 C 1.414062 -2.570312 1.9375 -2.398438 2.5 -2.265625 C 3.0625 -2.128906 3.566406 -2.0625 4.015625 -2.0625 C 4.671875 -2.0625 5 -2.210938 5 -2.515625 C 5 -2.671875 4.90625 -2.804688 4.71875 -2.921875 C 4.539062 -3.046875 4.003906 -3.285156 3.109375 -3.640625 C 2.296875 -3.972656 1.726562 -4.351562 1.40625 -4.78125 C 1.082031 -5.207031 0.921875 -5.742188 0.921875 -6.390625 C 0.921875 -7.210938 1.238281 -7.851562 1.875 -8.3125 C 2.507812 -8.769531 3.410156 -9 4.578125 -9 C 5.160156 -9 5.707031 -8.929688 6.21875 -8.796875 C 6.726562 -8.671875 7.257812 -8.488281 7.8125 -8.25 L 6.984375 -6.28125 C 6.578125 -6.46875 6.144531 -6.625 5.6875 -6.75 C 5.238281 -6.875 4.875 -6.9375 4.59375 -6.9375 C 4.09375 -6.9375 3.84375 -6.816406 3.84375 -6.578125 C 3.84375 -6.421875 3.925781 -6.289062 4.09375 -6.1875 C 4.269531 -6.082031 4.773438 -5.863281 5.609375 -5.53125 C 6.234375 -5.28125 6.695312 -5.03125 7 -4.78125 C 7.300781 -4.539062 7.523438 -4.253906 7.671875 -3.921875 C 7.816406 -3.585938 7.890625 -3.1875 7.890625 -2.71875 Z M 7.890625 -2.71875 "/></g></g><g transform="translate(250.956051, 232.938877)"><g><path d="M 6.359375 0.15625 C 5.910156 0.15625 5.507812 0.0820312 5.15625 -0.0625 C 4.800781 -0.207031 4.453125 -0.472656 4.109375 -0.859375 L 3.96875 -0.859375 C 4.0625 -0.242188 4.109375 0.132812 4.109375 0.28125 L 4.109375 3.84375 L 1.046875 3.84375 L 1.046875 -8.84375 L 3.53125 -8.84375 L 3.96875 -7.71875 L 4.109375 -7.71875 C 4.671875 -8.570312 5.453125 -9 6.453125 -9 C 7.429688 -9 8.195312 -8.59375 8.75 -7.78125 C 9.3125 -6.96875 9.59375 -5.851562 9.59375 -4.4375 C 9.59375 -3.007812 9.300781 -1.882812 8.71875 -1.0625 C 8.144531 -0.25 7.359375 0.15625 6.359375 0.15625 Z M 5.34375 -6.609375 C 4.894531 -6.609375 4.578125 -6.445312 4.390625 -6.125 C 4.210938 -5.800781 4.117188 -5.328125 4.109375 -4.703125 L 4.109375 -4.453125 C 4.109375 -3.691406 4.207031 -3.140625 4.40625 -2.796875 C 4.613281 -2.460938 4.9375 -2.296875 5.375 -2.296875 C 5.757812 -2.296875 6.039062 -2.460938 6.21875 -2.796875 C 6.394531 -3.140625 6.484375 -3.695312 6.484375 -4.46875 C 6.484375 -5.226562 6.394531 -5.773438 6.21875 -6.109375 C 6.039062 -6.441406 5.75 -6.609375 5.34375 -6.609375 Z M 5.34375 -6.609375 "/></g></g><g transform="translate(261.232431, 232.938877)"><g><path d="M 9.5 -4.4375 C 9.5 -2.988281 9.109375 -1.859375 8.328125 -1.046875 C 7.554688 -0.242188 6.46875 0.15625 5.0625 0.15625 C 3.71875 0.15625 2.648438 -0.253906 1.859375 -1.078125 C 1.066406 -1.910156 0.671875 -3.03125 0.671875 -4.4375 C 0.671875 -5.882812 1.054688 -7.003906 1.828125 -7.796875 C 2.609375 -8.597656 3.703125 -9 5.109375 -9 C 5.984375 -9 6.75 -8.8125 7.40625 -8.4375 C 8.070312 -8.070312 8.585938 -7.546875 8.953125 -6.859375 C 9.316406 -6.171875 9.5 -5.363281 9.5 -4.4375 Z M 3.765625 -4.4375 C 3.765625 -3.675781 3.863281 -3.097656 4.0625 -2.703125 C 4.269531 -2.304688 4.613281 -2.109375 5.09375 -2.109375 C 5.570312 -2.109375 5.90625 -2.304688 6.09375 -2.703125 C 6.289062 -3.097656 6.390625 -3.675781 6.390625 -4.4375 C 6.390625 -5.195312 6.289062 -5.769531 6.09375 -6.15625 C 5.894531 -6.539062 5.554688 -6.734375 5.078125 -6.734375 C 4.609375 -6.734375 4.269531 -6.539062 4.0625 -6.15625 C 3.863281 -5.769531 3.765625 -5.195312 3.765625 -4.4375 Z M 3.765625 -4.4375 "/></g></g><g transform="translate(271.415176, 232.938877)"><g><path d="M 7.890625 -2.71875 C 7.890625 -1.769531 7.566406 -1.050781 6.921875 -0.5625 C 6.273438 -0.0820312 5.347656 0.15625 4.140625 0.15625 C 3.484375 0.15625 2.910156 0.117188 2.421875 0.046875 C 1.941406 -0.015625 1.445312 -0.140625 0.9375 -0.328125 L 0.9375 -2.78125 C 1.414062 -2.570312 1.9375 -2.398438 2.5 -2.265625 C 3.0625 -2.128906 3.566406 -2.0625 4.015625 -2.0625 C 4.671875 -2.0625 5 -2.210938 5 -2.515625 C 5 -2.671875 4.90625 -2.804688 4.71875 -2.921875 C 4.539062 -3.046875 4.003906 -3.285156 3.109375 -3.640625 C 2.296875 -3.972656 1.726562 -4.351562 1.40625 -4.78125 C 1.082031 -5.207031 0.921875 -5.742188 0.921875 -6.390625 C 0.921875 -7.210938 1.238281 -7.851562 1.875 -8.3125 C 2.507812 -8.769531 3.410156 -9 4.578125 -9 C 5.160156 -9 5.707031 -8.929688 6.21875 -8.796875 C 6.726562 -8.671875 7.257812 -8.488281 7.8125 -8.25 L 6.984375 -6.28125 C 6.578125 -6.46875 6.144531 -6.625 5.6875 -6.75 C 5.238281 -6.875 4.875 -6.9375 4.59375 -6.9375 C 4.09375 -6.9375 3.84375 -6.816406 3.84375 -6.578125 C 3.84375 -6.421875 3.925781 -6.289062 4.09375 -6.1875 C 4.269531 -6.082031 4.773438 -5.863281 5.609375 -5.53125 C 6.234375 -5.28125 6.695312 -5.03125 7 -4.78125 C 7.300781 -4.539062 7.523438 -4.253906 7.671875 -3.921875 C 7.816406 -3.585938 7.890625 -3.1875 7.890625 -2.71875 Z M 7.890625 -2.71875 "/></g></g><g transform="translate(279.93591, 232.938877)"><g><path d="M 4.125 0 L 1.0625 0 L 1.0625 -8.84375 L 4.125 -8.84375 Z M 0.984375 -11.046875 C 0.984375 -11.503906 1.109375 -11.84375 1.359375 -12.0625 C 1.617188 -12.289062 2.035156 -12.40625 2.609375 -12.40625 C 3.171875 -12.40625 3.582031 -12.289062 3.84375 -12.0625 C 4.101562 -11.832031 4.234375 -11.492188 4.234375 -11.046875 C 4.234375 -10.148438 3.691406 -9.703125 2.609375 -9.703125 C 1.523438 -9.703125 0.984375 -10.148438 0.984375 -11.046875 Z M 0.984375 -11.046875 "/></g></g><g transform="translate(285.132622, 232.938877)"><g><path d="M 5.078125 0.15625 C 3.628906 0.15625 2.53125 -0.234375 1.78125 -1.015625 C 1.039062 -1.796875 0.671875 -2.914062 0.671875 -4.375 C 0.671875 -5.84375 1.070312 -6.976562 1.875 -7.78125 C 2.6875 -8.59375 3.835938 -9 5.328125 -9 C 6.347656 -9 7.3125 -8.773438 8.21875 -8.328125 L 7.328125 -6.078125 C 6.953125 -6.234375 6.609375 -6.359375 6.296875 -6.453125 C 5.984375 -6.554688 5.660156 -6.609375 5.328125 -6.609375 C 4.828125 -6.609375 4.441406 -6.414062 4.171875 -6.03125 C 3.898438 -5.644531 3.765625 -5.097656 3.765625 -4.390625 C 3.765625 -2.972656 4.289062 -2.265625 5.34375 -2.265625 C 6.238281 -2.265625 7.097656 -2.523438 7.921875 -3.046875 L 7.921875 -0.625 C 7.128906 -0.101562 6.179688 0.15625 5.078125 0.15625 Z M 6.609375 1.96875 C 6.609375 2.53125 6.410156 2.984375 6.015625 3.328125 C 5.628906 3.671875 5.113281 3.84375 4.46875 3.84375 C 3.769531 3.84375 3.21875 3.765625 2.8125 3.609375 L 2.8125 2.015625 C 3.25 2.148438 3.628906 2.21875 3.953125 2.21875 C 4.222656 2.21875 4.359375 2.097656 4.359375 1.859375 C 4.359375 1.679688 4.25 1.523438 4.03125 1.390625 C 3.820312 1.265625 3.550781 1.160156 3.21875 1.078125 L 3.765625 0 L 5.359375 0 L 5.28125 0.21875 C 5.78125 0.425781 6.125 0.664062 6.3125 0.9375 C 6.507812 1.21875 6.609375 1.5625 6.609375 1.96875 Z M 6.609375 1.96875 "/></g></g><g transform="translate(293.74699, 232.938877)"><g><path d="M 6.828125 0 L 6.234375 -1.171875 L 6.171875 -1.171875 C 5.765625 -0.660156 5.347656 -0.3125 4.921875 -0.125 C 4.492188 0.0625 3.941406 0.15625 3.265625 0.15625 C 2.429688 0.15625 1.773438 -0.09375 1.296875 -0.59375 C 0.816406 -1.09375 0.578125 -1.796875 0.578125 -2.703125 C 0.578125 -3.640625 0.90625 -4.335938 1.5625 -4.796875 C 2.21875 -5.265625 3.164062 -5.523438 4.40625 -5.578125 L 5.890625 -5.625 L 5.890625 -5.75 C 5.890625 -6.476562 5.53125 -6.84375 4.8125 -6.84375 C 4.164062 -6.84375 3.34375 -6.625 2.34375 -6.1875 L 1.46875 -8.203125 C 2.5 -8.734375 3.800781 -9 5.375 -9 C 6.507812 -9 7.382812 -8.71875 8 -8.15625 C 8.625 -7.59375 8.9375 -6.804688 8.9375 -5.796875 L 8.9375 0 Z M 4.5625 -2 C 4.925781 -2 5.238281 -2.113281 5.5 -2.34375 C 5.769531 -2.582031 5.90625 -2.890625 5.90625 -3.265625 L 5.90625 -3.953125 L 5.203125 -3.921875 C 4.191406 -3.878906 3.6875 -3.507812 3.6875 -2.8125 C 3.6875 -2.269531 3.976562 -2 4.5625 -2 Z M 6.5625 -9.671875 C 6.320312 -9.671875 6.082031 -9.707031 5.84375 -9.78125 C 5.613281 -9.863281 5.382812 -9.953125 5.15625 -10.046875 C 4.925781 -10.140625 4.703125 -10.222656 4.484375 -10.296875 C 4.265625 -10.378906 4.0625 -10.421875 3.875 -10.421875 C 3.59375 -10.421875 3.40625 -10.164062 3.3125 -9.65625 L 1.90625 -9.65625 C 1.957031 -10.5625 2.140625 -11.234375 2.453125 -11.671875 C 2.773438 -12.109375 3.25 -12.328125 3.875 -12.328125 C 4.070312 -12.328125 4.28125 -12.285156 4.5 -12.203125 C 4.726562 -12.128906 4.957031 -12.046875 5.1875 -11.953125 C 5.414062 -11.859375 5.640625 -11.769531 5.859375 -11.6875 C 6.085938 -11.613281 6.300781 -11.578125 6.5 -11.578125 C 6.644531 -11.578125 6.757812 -11.640625 6.84375 -11.765625 C 6.9375 -11.898438 7.007812 -12.09375 7.0625 -12.34375 L 8.484375 -12.34375 C 8.421875 -11.46875 8.222656 -10.800781 7.890625 -10.34375 C 7.566406 -9.894531 7.125 -9.671875 6.5625 -9.671875 Z M 6.5625 -9.671875 "/></g></g><g transform="translate(303.703452, 232.938877)"><g><path d="M 9.5 -4.4375 C 9.5 -2.988281 9.109375 -1.859375 8.328125 -1.046875 C 7.554688 -0.242188 6.46875 0.15625 5.0625 0.15625 C 3.71875 0.15625 2.648438 -0.253906 1.859375 -1.078125 C 1.066406 -1.910156 0.671875 -3.03125 0.671875 -4.4375 C 0.671875 -5.882812 1.054688 -7.003906 1.828125 -7.796875 C 2.609375 -8.597656 3.703125 -9 5.109375 -9 C 5.984375 -9 6.75 -8.8125 7.40625 -8.4375 C 8.070312 -8.070312 8.585938 -7.546875 8.953125 -6.859375 C 9.316406 -6.171875 9.5 -5.363281 9.5 -4.4375 Z M 3.765625 -4.4375 C 3.765625 -3.675781 3.863281 -3.097656 4.0625 -2.703125 C 4.269531 -2.304688 4.613281 -2.109375 5.09375 -2.109375 C 5.570312 -2.109375 5.90625 -2.304688 6.09375 -2.703125 C 6.289062 -3.097656 6.390625 -3.675781 6.390625 -4.4375 C 6.390625 -5.195312 6.289062 -5.769531 6.09375 -6.15625 C 5.894531 -6.539062 5.554688 -6.734375 5.078125 -6.734375 C 4.609375 -6.734375 4.269531 -6.539062 4.0625 -6.15625 C 3.863281 -5.769531 3.765625 -5.195312 3.765625 -4.4375 Z M 3.765625 -4.4375 "/></g></g><g transform="translate(313.886198, 232.938877)"><g/></g><g transform="translate(318.037324, 232.938877)"><g><path d="M 6.640625 0 L 6.640625 -4.828125 C 6.640625 -5.410156 6.550781 -5.851562 6.375 -6.15625 C 6.207031 -6.457031 5.9375 -6.609375 5.5625 -6.609375 C 5.050781 -6.609375 4.679688 -6.398438 4.453125 -5.984375 C 4.222656 -5.578125 4.109375 -4.875 4.109375 -3.875 L 4.109375 0 L 1.046875 0 L 1.046875 -8.84375 L 3.359375 -8.84375 L 3.734375 -7.75 L 3.921875 -7.75 C 4.179688 -8.164062 4.539062 -8.476562 5 -8.6875 C 5.457031 -8.894531 5.988281 -9 6.59375 -9 C 7.5625 -9 8.316406 -8.710938 8.859375 -8.140625 C 9.410156 -7.578125 9.6875 -6.78125 9.6875 -5.75 L 9.6875 0 Z M 6.640625 0 "/></g></g><g transform="translate(328.742862, 232.938877)"><g><path d="M 9.5 -4.4375 C 9.5 -2.988281 9.109375 -1.859375 8.328125 -1.046875 C 7.554688 -0.242188 6.46875 0.15625 5.0625 0.15625 C 3.71875 0.15625 2.648438 -0.253906 1.859375 -1.078125 C 1.066406 -1.910156 0.671875 -3.03125 0.671875 -4.4375 C 0.671875 -5.882812 1.054688 -7.003906 1.828125 -7.796875 C 2.609375 -8.597656 3.703125 -9 5.109375 -9 C 5.984375 -9 6.75 -8.8125 7.40625 -8.4375 C 8.070312 -8.070312 8.585938 -7.546875 8.953125 -6.859375 C 9.316406 -6.171875 9.5 -5.363281 9.5 -4.4375 Z M 3.765625 -4.4375 C 3.765625 -3.675781 3.863281 -3.097656 4.0625 -2.703125 C 4.269531 -2.304688 4.613281 -2.109375 5.09375 -2.109375 C 5.570312 -2.109375 5.90625 -2.304688 6.09375 -2.703125 C 6.289062 -3.097656 6.390625 -3.675781 6.390625 -4.4375 C 6.390625 -5.195312 6.289062 -5.769531 6.09375 -6.15625 C 5.894531 -6.539062 5.554688 -6.734375 5.078125 -6.734375 C 4.609375 -6.734375 4.269531 -6.539062 4.0625 -6.15625 C 3.863281 -5.769531 3.765625 -5.195312 3.765625 -4.4375 Z M 3.765625 -4.4375 "/></g></g><g transform="translate(338.925607, 232.938877)"><g/></g><g transform="translate(343.076734, 232.938877)"><g><path d="M 3.796875 0.15625 C 3.171875 0.15625 2.617188 -0.0195312 2.140625 -0.375 C 1.671875 -0.738281 1.304688 -1.269531 1.046875 -1.96875 C 0.796875 -2.664062 0.671875 -3.476562 0.671875 -4.40625 C 0.671875 -5.84375 0.957031 -6.96875 1.53125 -7.78125 C 2.113281 -8.59375 2.910156 -9 3.921875 -9 C 4.410156 -9 4.84375 -8.898438 5.21875 -8.703125 C 5.59375 -8.503906 5.929688 -8.171875 6.234375 -7.703125 L 6.296875 -7.703125 C 6.203125 -8.390625 6.15625 -9.082031 6.15625 -9.78125 L 6.15625 -12.140625 L 9.21875 -12.140625 L 9.21875 0 L 6.921875 0 L 6.265625 -1.109375 L 6.15625 -1.109375 C 5.625 -0.265625 4.835938 0.15625 3.796875 0.15625 Z M 5.046875 -2.25 C 5.535156 -2.25 5.878906 -2.398438 6.078125 -2.703125 C 6.285156 -3.015625 6.394531 -3.492188 6.40625 -4.140625 L 6.40625 -4.375 C 6.40625 -5.15625 6.289062 -5.710938 6.0625 -6.046875 C 5.84375 -6.378906 5.492188 -6.546875 5.015625 -6.546875 C 4.617188 -6.546875 4.304688 -6.351562 4.078125 -5.96875 C 3.859375 -5.59375 3.75 -5.054688 3.75 -4.359375 C 3.75 -3.671875 3.859375 -3.144531 4.078125 -2.78125 C 4.304688 -2.425781 4.628906 -2.25 5.046875 -2.25 Z M 5.046875 -2.25 "/></g></g><g transform="translate(353.353114, 232.938877)"><g><path d="M 4.125 0 L 1.0625 0 L 1.0625 -8.84375 L 4.125 -8.84375 Z M 0.984375 -11.046875 C 0.984375 -11.503906 1.109375 -11.84375 1.359375 -12.0625 C 1.617188 -12.289062 2.035156 -12.40625 2.609375 -12.40625 C 3.171875 -12.40625 3.582031 -12.289062 3.84375 -12.0625 C 4.101562 -11.832031 4.234375 -11.492188 4.234375 -11.046875 C 4.234375 -10.148438 3.691406 -9.703125 2.609375 -9.703125 C 1.523438 -9.703125 0.984375 -10.148438 0.984375 -11.046875 Z M 0.984375 -11.046875 "/></g></g><g transform="translate(358.549825, 232.938877)"><g><path d="M 6.828125 0 L 6.234375 -1.171875 L 6.171875 -1.171875 C 5.765625 -0.660156 5.347656 -0.3125 4.921875 -0.125 C 4.492188 0.0625 3.941406 0.15625 3.265625 0.15625 C 2.429688 0.15625 1.773438 -0.09375 1.296875 -0.59375 C 0.816406 -1.09375 0.578125 -1.796875 0.578125 -2.703125 C 0.578125 -3.640625 0.90625 -4.335938 1.5625 -4.796875 C 2.21875 -5.265625 3.164062 -5.523438 4.40625 -5.578125 L 5.890625 -5.625 L 5.890625 -5.75 C 5.890625 -6.476562 5.53125 -6.84375 4.8125 -6.84375 C 4.164062 -6.84375 3.34375 -6.625 2.34375 -6.1875 L 1.46875 -8.203125 C 2.5 -8.734375 3.800781 -9 5.375 -9 C 6.507812 -9 7.382812 -8.71875 8 -8.15625 C 8.625 -7.59375 8.9375 -6.804688 8.9375 -5.796875 L 8.9375 0 Z M 4.5625 -2 C 4.925781 -2 5.238281 -2.113281 5.5 -2.34375 C 5.769531 -2.582031 5.90625 -2.890625 5.90625 -3.265625 L 5.90625 -3.953125 L 5.203125 -3.921875 C 4.191406 -3.878906 3.6875 -3.507812 3.6875 -2.8125 C 3.6875 -2.269531 3.976562 -2 4.5625 -2 Z M 4.5625 -2 "/></g></g><g transform="translate(368.506287, 232.938877)"><g/></g><g transform="translate(372.657414, 232.938877)"><g><path d="M 6.828125 0 L 6.234375 -1.171875 L 6.171875 -1.171875 C 5.765625 -0.660156 5.347656 -0.3125 4.921875 -0.125 C 4.492188 0.0625 3.941406 0.15625 3.265625 0.15625 C 2.429688 0.15625 1.773438 -0.09375 1.296875 -0.59375 C 0.816406 -1.09375 0.578125 -1.796875 0.578125 -2.703125 C 0.578125 -3.640625 0.90625 -4.335938 1.5625 -4.796875 C 2.21875 -5.265625 3.164062 -5.523438 4.40625 -5.578125 L 5.890625 -5.625 L 5.890625 -5.75 C 5.890625 -6.476562 5.53125 -6.84375 4.8125 -6.84375 C 4.164062 -6.84375 3.34375 -6.625 2.34375 -6.1875 L 1.46875 -8.203125 C 2.5 -8.734375 3.800781 -9 5.375 -9 C 6.507812 -9 7.382812 -8.71875 8 -8.15625 C 8.625 -7.59375 8.9375 -6.804688 8.9375 -5.796875 L 8.9375 0 Z M 4.5625 -2 C 4.925781 -2 5.238281 -2.113281 5.5 -2.34375 C 5.769531 -2.582031 5.90625 -2.890625 5.90625 -3.265625 L 5.90625 -3.953125 L 5.203125 -3.921875 C 4.191406 -3.878906 3.6875 -3.507812 3.6875 -2.8125 C 3.6875 -2.269531 3.976562 -2 4.5625 -2 Z M 4.5625 -2 "/></g></g><g transform="translate(382.613876, 232.938877)"><g/></g><g transform="translate(386.765003, 232.938877)"><g><path d="M 3.796875 0.15625 C 3.171875 0.15625 2.617188 -0.0195312 2.140625 -0.375 C 1.671875 -0.738281 1.304688 -1.269531 1.046875 -1.96875 C 0.796875 -2.664062 0.671875 -3.476562 0.671875 -4.40625 C 0.671875 -5.84375 0.957031 -6.96875 1.53125 -7.78125 C 2.113281 -8.59375 2.910156 -9 3.921875 -9 C 4.410156 -9 4.84375 -8.898438 5.21875 -8.703125 C 5.59375 -8.503906 5.929688 -8.171875 6.234375 -7.703125 L 6.296875 -7.703125 C 6.203125 -8.390625 6.15625 -9.082031 6.15625 -9.78125 L 6.15625 -12.140625 L 9.21875 -12.140625 L 9.21875 0 L 6.921875 0 L 6.265625 -1.109375 L 6.15625 -1.109375 C 5.625 -0.265625 4.835938 0.15625 3.796875 0.15625 Z M 5.046875 -2.25 C 5.535156 -2.25 5.878906 -2.398438 6.078125 -2.703125 C 6.285156 -3.015625 6.394531 -3.492188 6.40625 -4.140625 L 6.40625 -4.375 C 6.40625 -5.15625 6.289062 -5.710938 6.0625 -6.046875 C 5.84375 -6.378906 5.492188 -6.546875 5.015625 -6.546875 C 4.617188 -6.546875 4.304688 -6.351562 4.078125 -5.96875 C 3.859375 -5.59375 3.75 -5.054688 3.75 -4.359375 C 3.75 -3.671875 3.859375 -3.144531 4.078125 -2.78125 C 4.304688 -2.425781 4.628906 -2.25 5.046875 -2.25 Z M 5.046875 -2.25 "/></g></g><g transform="translate(397.041383, 232.938877)"><g><path d="M 4.125 0 L 1.0625 0 L 1.0625 -8.84375 L 4.125 -8.84375 Z M 0.984375 -11.046875 C 0.984375 -11.503906 1.109375 -11.84375 1.359375 -12.0625 C 1.617188 -12.289062 2.035156 -12.40625 2.609375 -12.40625 C 3.171875 -12.40625 3.582031 -12.289062 3.84375 -12.0625 C 4.101562 -11.832031 4.234375 -11.492188 4.234375 -11.046875 C 4.234375 -10.148438 3.691406 -9.703125 2.609375 -9.703125 C 1.523438 -9.703125 0.984375 -10.148438 0.984375 -11.046875 Z M 0.984375 -11.046875 "/></g></g><g transform="translate(402.238094, 232.938877)"><g><path d="M 6.828125 0 L 6.234375 -1.171875 L 6.171875 -1.171875 C 5.765625 -0.660156 5.347656 -0.3125 4.921875 -0.125 C 4.492188 0.0625 3.941406 0.15625 3.265625 0.15625 C 2.429688 0.15625 1.773438 -0.09375 1.296875 -0.59375 C 0.816406 -1.09375 0.578125 -1.796875 0.578125 -2.703125 C 0.578125 -3.640625 0.90625 -4.335938 1.5625 -4.796875 C 2.21875 -5.265625 3.164062 -5.523438 4.40625 -5.578125 L 5.890625 -5.625 L 5.890625 -5.75 C 5.890625 -6.476562 5.53125 -6.84375 4.8125 -6.84375 C 4.164062 -6.84375 3.34375 -6.625 2.34375 -6.1875 L 1.46875 -8.203125 C 2.5 -8.734375 3.800781 -9 5.375 -9 C 6.507812 -9 7.382812 -8.71875 8 -8.15625 C 8.625 -7.59375 8.9375 -6.804688 8.9375 -5.796875 L 8.9375 0 Z M 4.5625 -2 C 4.925781 -2 5.238281 -2.113281 5.5 -2.34375 C 5.769531 -2.582031 5.90625 -2.890625 5.90625 -3.265625 L 5.90625 -3.953125 L 5.203125 -3.921875 C 4.191406 -3.878906 3.6875 -3.507812 3.6875 -2.8125 C 3.6875 -2.269531 3.976562 -2 4.5625 -2 Z M 4.5625 -2 "/></g></g></g><g fill="#ffffff" fill-opacity="1"><g transform="translate(313.004473, 254.911758)"><g/></g></g></svg>