<?xml version="1.0" standalone="no"?>
<!DOCTYPE svg PUBLIC "-//W3C//DTD SVG 20010904//EN"
 "http://www.w3.org/TR/2001/REC-SVG-20010904/DTD/svg10.dtd">
<svg version="1.0" xmlns="http://www.w3.org/2000/svg"
 width="400.000000pt" height="200.000000pt" viewBox="0 0 400.000000 200.000000"
 preserveAspectRatio="xMidYMid meet">
<metadata>
Created by potrace 1.16, written by Peter Selinger 2001-2019
</metadata>
<g transform="translate(0.000000,200.000000) scale(0.100000,-0.100000)"
fill="#000000" stroke="none">
<path d="M1888 1331 c-117 -46 -143 -86 -136 -217 3 -53 1 -97 -4 -102 -13
-13 -1 -67 17 -82 7 -6 35 -17 62 -23 48 -12 48 -12 57 -64 9 -50 11 -52 35
-47 35 7 136 6 176 -2 l33 -6 7 52 c7 54 25 70 80 70 35 0 68 47 60 85 -3 16
-5 76 -5 133 l2 103 -39 38 c-76 76 -236 104 -345 62z m-9 -236 c40 -38 66
-55 84 -55 48 0 28 -17 -38 -34 -92 -23 -113 -9 -134 85 -18 78 9 80 88 4z
m356 45 c12 -19 -24 -119 -49 -135 -21 -14 -30 -14 -90 1 -67 17 -87 34 -39
34 18 0 44 17 84 55 56 54 81 66 94 45z"/>
<path d="M257 1223 c-4 -3 -7 -19 -7 -34 l0 -28 93 -3 c91 -3 92 -3 92 -28 0
-25 -1 -25 -93 -28 l-93 -3 3 -32 3 -32 93 -3 93 -3 -3 -27 c-3 -27 -3 -27
-95 -30 l-93 -3 0 -29 0 -30 105 0 c101 0 107 1 130 25 21 24 23 34 23 132 0
104 -1 108 -28 135 -27 27 -33 28 -123 28 -51 0 -97 -3 -100 -7z"/>
<path d="M541 1128 c0 -124 13 -165 58 -195 29 -19 47 -23 117 -23 l84 0 0 35
0 35 -74 0 c-69 0 -76 2 -95 26 -18 23 -21 41 -21 125 l0 99 -35 0 -35 0 1
-102z"/>
<path d="M932 1215 c-15 -11 -35 -56 -67 -156 -25 -78 -45 -143 -45 -146 0 -2
16 -3 36 -1 l35 3 41 124 c22 68 43 119 48 115 4 -5 25 -62 46 -126 l37 -118
33 0 c19 0 34 4 34 9 0 5 -20 72 -45 148 -38 119 -49 141 -70 151 -35 16 -56
15 -83 -3z"/>
<path d="M1201 1217 c-40 -20 -64 -62 -69 -121 -6 -78 4 -121 39 -156 30 -29
33 -30 125 -30 l94 0 0 35 0 35 -79 0 c-71 0 -82 2 -95 22 -9 12 -16 43 -16
68 0 25 7 56 16 68 13 20 24 22 95 22 l79 0 0 35 0 35 -82 0 c-46 0 -94 -6
-107 -13z"/>
<path d="M1420 1071 l0 -161 35 0 c33 0 35 2 35 35 0 19 2 35 4 35 2 0 41 -16
86 -35 45 -19 86 -35 91 -35 5 0 9 15 9 33 0 33 -3 35 -90 75 -49 22 -90 45
-90 49 0 5 41 26 90 47 l90 38 0 38 0 39 -92 -39 -93 -39 -5 37 c-4 33 -8 37
-37 40 l-33 3 0 -160z"/>
<path d="M2339 1201 c-38 -38 -40 -97 -6 -137 20 -23 32 -27 88 -29 35 -1 70
-3 77 -4 18 -2 15 -48 -4 -55 -9 -3 -49 -6 -90 -6 l-74 0 0 -30 0 -30 100 0
c94 0 103 2 125 25 32 31 35 101 6 136 -16 21 -31 25 -98 29 -75 5 -78 6 -78
30 0 25 1 25 93 28 l92 3 0 34 0 35 -101 0 c-98 0 -101 -1 -130 -29z"/>
<path d="M2600 1070 l0 -160 30 0 c27 0 30 3 30 29 0 17 3 32 8 34 4 3 45 -10
91 -29 47 -19 88 -34 93 -34 4 0 8 15 8 33 0 32 -3 34 -91 74 -50 22 -91 44
-91 49 0 5 41 27 91 48 l91 39 0 38 0 38 -95 -39 c-52 -22 -97 -40 -100 -40
-3 0 -5 18 -5 40 0 38 -2 40 -30 40 l-30 0 0 -160z"/>
<path d="M2890 1104 l0 -126 34 -34 c30 -30 40 -34 85 -34 113 0 141 42 141
210 l0 110 -30 0 -30 0 0 -105 c0 -118 -13 -145 -70 -145 -57 0 -70 27 -70
145 l0 105 -30 0 -30 0 0 -126z"/>
<path d="M3181 1128 c0 -124 13 -165 58 -195 29 -19 47 -23 117 -23 l84 0 0
35 0 35 -79 0 c-61 0 -82 4 -92 16 -9 11 -16 54 -19 123 l-5 106 -32 3 -33 3
1 -103z"/>
<path d="M3470 1125 c0 -177 32 -215 178 -215 l82 0 0 35 0 35 -79 0 c-102 0
-109 9 -113 147 l-3 98 -32 3 -33 3 0 -106z"/>
</g>
</svg>
