<?xml version="1.0" standalone="no"?>
<!DOCTYPE svg PUBLIC "-//W3C//DTD SVG 20010904//EN"
 "http://www.w3.org/TR/2001/REC-SVG-20010904/DTD/svg10.dtd">
<svg version="1.0" xmlns="http://www.w3.org/2000/svg"
 width="324.000000pt" height="156.000000pt" viewBox="0 0 324.000000 156.000000"
 preserveAspectRatio="xMidYMid meet">
<metadata>
Created by potrace 1.16, written by Peter Selinger 2001-2019
</metadata>
<g transform="translate(0.000000,156.000000) scale(0.100000,-0.100000)"
fill="#000000" stroke="none">
<path d="M1085 1460 c-44 -17 -48 -32 -43 -184 l4 -145 -29 25 c-16 13 -34 24
-41 24 -9 0 -13 18 -13 58 0 101 -54 180 -138 201 -57 14 -283 -3 -303 -23
-10 -10 -24 -11 -50 -5 -59 13 -243 -9 -267 -32 -23 -23 -23 -34 5 -312 17
-168 24 -205 40 -221 18 -19 24 -19 177 -5 299 27 869 14 1040 -23 80 -17 113
-68 113 -173 0 -45 -3 -53 -25 -63 -32 -15 -74 -80 -82 -128 -6 -35 -5 -38 10
-26 24 20 49 -23 44 -74 -3 -22 -2 -30 0 -20 3 11 11 26 19 33 8 8 14 30 14
48 0 19 5 37 11 41 17 10 98 11 96 0 -2 -9 57 -44 76 -46 14 0 7 51 -13 89
-20 41 -73 91 -95 91 -7 0 -16 8 -19 17 -8 21 2 118 16 155 22 59 76 71 398
88 267 14 433 12 645 -5 245 -20 251 -20 270 9 9 13 18 58 22 105 6 77 8 83
34 97 33 16 35 25 49 149 19 175 15 184 -86 197 -130 15 -539 47 -734 57 -233
12 -1116 13 -1145 1z m545 -115 l0 -55 -51 0 c-43 0 -50 -3 -47 -17 2 -10 12
-18 23 -19 11 -1 26 -2 33 -3 8 0 12 -18 12 -49 0 -48 -1 -49 -31 -50 -37 -1
-43 -6 -35 -27 4 -12 17 -15 51 -12 l45 3 0 -50 0 -51 -104 0 -104 0 -5 35
c-8 50 -9 329 -2 340 3 6 53 10 111 10 l104 0 0 -55z m505 46 c-6 -11 35 -101
47 -101 4 0 8 20 8 45 l0 45 66 0 65 0 -7 -172 c-8 -197 -14 -223 -47 -214
-12 3 -31 6 -43 6 -15 0 -27 14 -45 52 l-24 52 -5 -50 -5 -49 -60 3 c-33 2
-62 5 -64 7 -2 2 0 87 4 189 l7 185 52 4 c28 2 52 4 54 5 2 1 1 -2 -3 -7z
m-780 -27 c28 -31 40 -79 31 -132 -9 -57 -36 -86 -90 -96 l-46 -8 0 -59 0 -59
-59 0 -59 0 -6 128 c-4 70 -9 155 -12 190 l-6 62 112 0 c107 0 112 -1 135 -26z
m560 4 c3 -13 21 -88 40 -168 19 -80 37 -155 40 -167 5 -22 3 -23 -55 -23 -59
0 -61 1 -66 30 -7 30 -7 31 -78 34 -14 1 -22 -9 -28 -32 l-9 -34 -52 7 c-29 4
-53 8 -54 9 -1 1 22 83 50 184 l52 182 77 0 c72 0 78 -2 83 -22z m560 -109
c-5 -70 -4 -109 3 -109 12 0 22 48 22 105 0 23 3 57 6 74 6 31 7 31 72 31 l65
0 -7 -106 c-4 -58 -14 -127 -22 -154 -33 -110 -137 -153 -218 -89 -48 38 -59
74 -58 189 1 58 4 121 7 140 l6 35 65 -3 66 -4 -7 -109z m-1653 90 c53 -28 64
-159 16 -190 -6 -4 -1 -23 11 -45 37 -70 38 -72 56 -46 28 39 85 23 85 -24 0
-35 -26 -47 -115 -52 l-85 -4 -25 53 -25 54 0 -56 0 -56 -52 -6 c-29 -2 -55
-3 -57 -1 -5 4 -30 282 -31 336 0 34 2 37 33 41 69 8 169 6 189 -4z m2011 -20
l118 -11 -6 -47 c-15 -118 -13 -114 -49 -107 l-33 6 -10 -105 c-5 -58 -13
-108 -16 -111 -3 -4 -36 -3 -73 1 l-66 7 6 41 c3 23 8 72 12 110 l6 67 -31 6
c-29 6 -31 10 -31 48 0 22 3 58 6 78 6 32 10 37 28 33 11 -2 74 -9 139 -16z
m-2319 -20 c48 -38 71 -95 71 -179 0 -126 -34 -163 -167 -180 -40 -5 -74 -7
-76 -6 -3 4 -42 330 -42 358 0 19 23 24 121 27 54 1 71 -3 93 -20z"/>
</g>
</svg>
