<svg xmlns="http://www.w3.org/2000/svg" xmlns:xlink="http://www.w3.org/1999/xlink" width="500" zoomAndPan="magnify" viewBox="0 0 375 374.999991" height="500" preserveAspectRatio="xMidYMid meet" version="1.0"><path stroke-linecap="butt" transform="matrix(0.500121, 0, 0, 0.500121, 128.366655, 170.200666)" fill="none" stroke-linejoin="miter" d="M 138.717437 12.236326 C 145.543908 12.236326 151.706476 13.454781 157.205143 15.883879 C 162.727242 18.289546 167.257394 21.632486 170.787788 25.912698 C 174.325993 30.1851 176.622311 35.090161 177.684554 40.61226 C 177.950114 41.596396 178.075084 42.377457 178.075084 42.955442 C 178.075084 43.70526 177.926682 44.189517 177.622069 44.431646 C 177.340887 44.673775 176.833198 44.837798 176.09119 44.915904 L 154.494863 46.274949 C 153.674749 46.274949 153.135817 46.134359 152.901499 45.853177 C 152.65937 45.571995 152.409431 44.923715 152.14387 43.923957 C 151.425294 39.987411 150.066249 36.894411 148.082355 34.644956 C 146.114082 32.37988 143.239779 31.239532 139.467256 31.239532 C 134.609058 31.239532 130.859967 33.379638 128.235603 37.65985 C 125.603429 41.932252 124.291247 48.883692 124.291247 58.498549 C 124.291247 68.441451 125.49408 75.502239 127.899747 79.704346 C 130.328846 83.898641 134.132611 85.999695 139.318854 85.999695 C 143.692794 85.999695 147.418453 84.890588 150.488022 82.680187 C 153.581022 80.454164 156.150711 76.751936 158.19709 71.573504 C 158.439219 70.823686 159.142174 70.456587 160.305954 70.456587 C 160.868318 70.456587 161.321333 70.495641 161.665 70.573747 L 177.083137 73.674557 C 178.309402 74.080709 178.91863 75.025792 178.91863 76.509808 C 178.91863 78.821747 177.50491 82.383384 174.66966 87.202528 C 171.84222 91.99824 167.405795 96.379991 161.360386 100.332158 C 155.314976 104.268703 147.691824 106.236976 138.475309 106.236976 C 129.758672 106.236976 122.112088 104.159355 115.519936 100.004112 C 108.935594 95.841059 103.8587 90.131505 100.281442 82.867641 C 96.711995 75.572535 94.923366 67.285481 94.923366 57.990859 C 94.923366 48.789965 96.711995 40.737229 100.281442 33.832653 C 103.8587 26.928077 108.959026 21.609054 115.582421 17.867773 C 122.205815 14.118682 129.922694 12.236326 138.717437 12.236326 Z M 188.549107 16.305652 C 188.549107 15.399622 188.752183 14.712288 189.150524 14.228031 C 189.572297 13.728152 190.158092 13.470402 190.9001 13.470402 L 214.33192 13.470402 C 215.815935 13.470402 216.557943 14.337379 216.557943 16.063523 L 216.557943 83.047285 C 216.557943 83.703376 216.659481 84.156391 216.862556 84.39852 C 217.057822 84.640649 217.448352 84.757808 218.034147 84.757808 L 255.165771 84.757808 C 257.055938 84.757808 258.001021 85.546679 258.001021 87.108801 L 258.001021 102.29262 C 258.001021 103.112734 257.72765 103.776635 257.188718 104.276514 C 256.665408 104.760772 255.915589 105.0029 254.931453 105.0029 L 191.892047 105.0029 C 190.650161 105.0029 189.775373 104.760772 189.275494 104.276514 C 188.791236 103.776635 188.549107 102.995575 188.549107 101.925521 Z M 345.846914 68.863224 C 345.846914 82.352141 342.433679 91.959187 335.599398 97.684362 C 328.772928 103.386105 319.025291 106.236976 306.356487 106.236976 C 292.125562 106.236976 281.987394 102.948711 275.941985 96.387801 C 269.896575 89.80346 266.87387 79.798073 266.87387 66.387261 L 266.87387 16.305652 C 266.87387 15.399622 267.076946 14.712288 267.475287 14.228031 C 267.89706 13.728152 268.482855 13.470402 269.224863 13.470402 L 292.656683 13.470402 C 294.140698 13.470402 294.882706 14.337379 294.882706 16.063523 L 294.882706 69.339671 C 294.882706 75.424133 296.046486 79.829315 298.381857 82.563028 C 300.725039 85.273308 304.091411 86.632354 308.465351 86.632354 C 312.745563 86.632354 316.197851 85.273308 318.830025 82.563028 C 321.454389 79.829315 322.774382 75.306974 322.774382 68.980383 L 322.774382 16.305652 C 322.774382 14.415485 323.555442 13.470402 325.125374 13.470402 L 343.61308 13.470402 C 345.097095 13.470402 345.846914 14.337379 345.846914 16.063523 Z M 360.507422 105.0029 C 359.679498 105.0029 358.999975 104.73734 358.461043 104.214029 C 357.937733 103.675097 357.672172 103.034628 357.672172 102.29262 L 357.672172 16.66494 C 357.672172 15.758909 357.953354 15.009091 358.515718 14.407675 C 359.101513 13.782826 359.843521 13.470402 360.749551 13.470402 L 397.521887 13.470402 C 410.346903 13.470402 420.071108 15.50897 426.671071 19.586107 C 433.302276 23.639812 436.613973 29.6696 436.613973 37.65985 C 436.613973 42.018169 435.41895 45.696965 433.028905 48.711859 C 430.662291 51.703321 426.475806 54.593245 420.469449 57.381632 C 420.305426 57.467549 420.22732 57.61595 420.22732 57.834647 C 420.22732 58.037723 420.305426 58.178314 420.469449 58.25642 C 427.131897 60.70895 431.865124 63.622307 434.653511 66.988678 C 437.441897 70.36286 438.839996 74.728989 438.839996 80.094876 C 438.839996 88.545952 435.606405 94.810059 429.147033 98.887195 C 422.695472 102.964332 412.822865 105.0029 399.505781 105.0029 Z M 399.505781 49.250791 C 402.380084 49.250791 404.676403 48.46973 406.402547 46.907609 C 408.128691 45.337677 408.995668 43.32254 408.995668 40.846578 C 408.995668 38.222214 408.003721 36.082108 406.012016 34.43407 C 404.043743 32.786032 401.583402 31.965918 398.630993 31.965918 L 388.516258 31.965918 C 387.454015 31.965918 386.712007 32.153373 386.290235 32.536092 C 385.884083 32.903191 385.681007 33.528039 385.681007 34.43407 L 385.681007 46.509268 C 385.681007 47.516836 385.84503 48.227601 386.165265 48.649374 C 386.508932 49.055525 387.040053 49.250791 387.758629 49.250791 Z M 398.873122 86.507384 C 402.247304 86.507384 404.90291 85.562301 406.824319 83.679944 C 408.776971 81.766346 409.745486 79.540323 409.745486 76.994065 C 409.745486 74.439997 408.792592 72.346754 406.886804 70.698716 C 404.996637 69.050678 402.536296 68.230565 399.505781 68.230565 L 388.516258 68.230565 C 387.454015 68.230565 386.712007 68.441451 386.290235 68.863224 C 385.884083 69.261565 385.681007 69.909845 385.681007 70.815875 L 385.681007 83.765861 C 385.681007 84.773429 385.84503 85.484195 386.165265 85.905967 C 386.508932 86.304308 387.040053 86.507384 387.758629 86.507384 Z M 398.873122 86.507384 " stroke="#ffffff" stroke-width="4.626112" stroke-opacity="1" stroke-miterlimit="4"/><path stroke-linecap="butt" transform="matrix(0.500121, 0, 0, 0.500121, -20.264553, 143.284385)" fill="none" stroke-linejoin="miter" d="M 158.756246 106.233602 C 150.195821 106.233602 142.650775 104.26533 136.105487 100.328784 C 129.57582 96.376617 124.530168 90.885761 120.95291 83.856215 C 117.383463 76.811047 115.594834 68.72707 115.594834 59.612092 C 115.594834 50.239364 117.485001 41.975742 121.257524 34.829037 C 125.053478 27.6589 130.341259 22.105559 137.128676 18.169013 C 143.916093 14.216846 151.664215 12.240763 160.380852 12.240763 C 167.449451 12.240763 173.75261 13.537323 179.290331 16.122634 C 184.851482 18.715756 189.342581 22.066506 192.755816 26.182695 C 196.169051 30.275453 198.410696 34.633772 199.472938 39.257651 C 199.715067 40.241787 199.832226 41.022848 199.832226 41.600833 C 199.832226 42.342841 199.676014 42.834909 199.347968 43.077038 C 199.027733 43.319166 198.496612 43.483189 197.754605 43.561295 L 176.642535 46.787076 C 175.736505 46.787076 175.16633 46.623053 174.924201 46.302818 C 174.682073 45.959151 174.432133 45.29525 174.174383 44.311113 C 173.533914 40.522969 171.995224 37.414348 169.566125 35.008681 C 167.137027 32.579582 163.864383 31.361128 159.748193 31.361128 C 154.905617 31.361128 151.234632 33.438749 148.727427 37.593992 C 146.212412 41.733613 144.962715 48.817833 144.962715 58.862273 C 144.962715 69.383161 146.31395 76.701699 149.02423 80.817889 C 151.734511 84.934078 155.639814 86.988268 160.74014 86.988268 C 167.410398 86.988268 171.846822 84.106154 174.049414 78.349737 L 174.447754 77.23282 L 174.682073 76.264305 C 174.682073 75.522297 174.236868 75.155199 173.330838 75.155199 L 161.732087 75.155199 C 160.833867 75.155199 160.185587 74.952123 159.810678 74.553782 C 159.443579 74.132009 159.263935 73.429055 159.263935 72.444918 L 159.263935 60.580607 C 159.263935 59.190319 160.130913 58.495175 161.857057 58.495175 L 196.395559 58.737304 C 197.863953 58.737304 199.012112 59.088781 199.832226 59.791736 C 200.65234 60.49469 201.066302 61.424152 201.066302 62.564501 L 201.066302 102.890663 C 201.066302 103.476458 200.855415 103.976337 200.433643 104.39811 C 200.035302 104.796451 199.551044 104.999527 198.98868 104.999527 L 194.294506 104.999527 C 192.80268 104.999527 191.490498 104.218466 190.342339 102.648534 L 185.406036 95.50964 C 185.327929 95.25189 185.163907 95.119109 184.921778 95.119109 C 184.765566 95.119109 184.476573 95.329996 184.054801 95.751768 C 181.922505 97.798147 179.883937 99.532102 177.939096 100.938011 C 176.009876 102.320489 173.440186 103.554564 170.230027 104.640239 C 167.035489 105.702481 163.208292 106.233602 158.756246 106.233602 Z M 296.176058 13.474839 C 297.667884 13.474839 298.409892 13.966907 298.409892 14.951043 C 298.409892 15.193172 298.245869 15.646187 297.925634 16.302278 L 269.042011 62.923789 C 268.479647 63.751713 268.12817 64.665554 267.987579 65.665312 C 267.87042 66.649448 267.807935 68.461509 267.807935 71.085873 L 267.807935 101.414458 C 267.807935 102.742261 267.47989 103.671724 266.815988 104.218466 C 266.175518 104.741777 265.144518 104.999527 263.74642 104.999527 L 243.02488 104.999527 C 241.798615 104.999527 240.95507 104.757398 240.494244 104.280951 C 240.033418 103.773261 239.7991 102.992201 239.7991 101.929958 L 239.7991 69.461267 C 239.7991 68.320918 239.681941 67.391456 239.439812 66.688501 C 239.197683 65.985547 238.744668 65.102948 238.080766 64.040706 L 209.228386 16.903695 C 208.89253 16.341331 208.720696 15.81021 208.720696 15.310331 C 208.720696 14.084066 209.618916 13.474839 211.430977 13.474839 L 236.245274 13.474839 C 237.393433 13.474839 238.221357 13.646672 238.744668 13.982528 C 239.29141 14.310573 239.845964 14.997907 240.431759 16.060149 L 255.607768 43.444136 C 256.013919 44.26425 256.341965 44.678212 256.607525 44.678212 C 257.005866 44.678212 257.365154 44.303303 257.685389 43.561295 L 272.627079 16.060149 C 273.126958 14.997907 273.658079 14.310573 274.220443 13.982528 C 274.806239 13.646672 275.665405 13.474839 276.813565 13.474839 Z M 310.852188 104.999527 C 309.868052 104.999527 309.086991 104.702724 308.509006 104.093496 C 307.946642 103.476458 307.665461 102.617292 307.665461 101.539428 L 307.665461 16.302278 C 307.665461 15.318142 307.860726 14.607376 308.266877 14.169983 C 308.68865 13.701346 309.352552 13.474839 310.250771 13.474839 L 344.797084 13.474839 C 345.859327 13.474839 346.616956 13.615429 347.05435 13.896611 C 347.515175 14.177793 347.921327 14.77921 348.257183 15.700861 L 361.09001 54.917917 C 361.332139 55.574008 361.61332 55.909864 361.933555 55.909864 C 362.191305 55.909864 362.449055 55.574008 362.683373 54.917917 L 374.164965 17.059907 C 374.805435 14.669861 375.90673 13.474839 377.476662 13.474839 L 413.132081 13.474839 C 414.616097 13.474839 415.358104 14.334005 415.358104 16.060149 L 415.358104 101.414458 C 415.358104 102.742261 415.053491 103.671724 414.428642 104.218466 C 413.803794 104.741777 412.804036 104.999527 411.413748 104.999527 L 390.543807 104.999527 C 389.317542 104.999527 388.473996 104.757398 388.013171 104.280951 C 387.575777 103.773261 387.349269 102.992201 387.349269 101.929958 L 387.349269 46.513704 C 387.349269 45.873235 387.193057 45.545189 386.872822 45.545189 C 386.451049 45.545189 386.115193 45.920098 385.873064 46.662106 L 368.103934 102.773504 C 367.52595 104.257519 366.541813 104.999527 365.159336 104.999527 L 352.20935 104.999527 C 350.717524 104.999527 349.725577 104.257519 349.225698 102.773504 L 331.487811 47.630621 C 331.22225 46.802697 330.933258 46.388735 330.613023 46.388735 C 330.19125 46.388735 329.980364 46.84175 329.980364 47.74778 L 329.980364 102.289246 C 329.980364 103.351489 329.816341 104.077875 329.496106 104.460595 C 329.175871 104.819883 328.433864 104.999527 327.270083 104.999527 Z M 310.852188 104.999527 " stroke="#ffffff" stroke-width="4.626112" stroke-opacity="1" stroke-miterlimit="4"/></svg>