<?xml version="1.0" standalone="no"?>
<!DOCTYPE svg PUBLIC "-//W3C//DTD SVG 20010904//EN"
 "http://www.w3.org/TR/2001/REC-SVG-20010904/DTD/svg10.dtd">
<svg version="1.0" xmlns="http://www.w3.org/2000/svg"
 width="3840.000000pt" height="2160.000000pt" viewBox="0 0 3840.000000 2160.000000"
 preserveAspectRatio="xMidYMid meet">

<g transform="translate(0.000000,2160.000000) scale(0.100000,-0.100000)"
fill="#000000" stroke="none">
<path d="M12780 13743 c-389 -38 -719 -147 -990 -328 -327 -219 -529 -515
-612 -895 -26 -121 -36 -402 -19 -551 65 -565 356 -956 927 -1242 141 -71 256
-119 489 -205 105 -39 325 -121 490 -182 470 -175 663 -276 800 -421 120 -128
168 -258 169 -459 1 -146 -11 -204 -64 -315 -110 -230 -355 -372 -740 -426
-141 -20 -461 -15 -630 11 -483 72 -914 255 -1305 555 -44 33 -86 64 -92 68
-10 7 -13 -96 -13 -498 l0 -505 85 -56 c317 -206 756 -356 1235 -421 191 -26
691 -26 865 0 376 56 708 180 955 355 254 180 453 445 544 726 51 155 67 259
73 462 15 529 -115 894 -431 1209 -132 131 -245 216 -418 312 -163 91 -264
133 -883 364 -308 116 -605 230 -659 255 -272 121 -419 269 -473 474 -21 80
-23 263 -4 340 92 377 510 571 1135 528 212 -14 435 -61 631 -133 224 -82 524
-250 742 -415 l68 -52 3 494 2 493 -22 18 c-65 53 -308 178 -471 242 -363 142
-728 207 -1144 203 -114 0 -224 -3 -243 -5z"/>
<path d="M4030 10842 l0 -2902 450 0 450 0 0 1856 c0 1175 4 1854 10 1852 10
-3 376 -366 1975 -1957 528 -526 1159 -1154 1403 -1396 l442 -440 0 2903 0
2902 -450 0 -450 0 0 -1825 c0 -1004 -3 -1825 -7 -1825 -4 0 -109 100 -233
222 -124 123 -326 322 -450 443 -124 121 -329 321 -455 445 -127 124 -334 326
-460 450 -127 124 -334 326 -460 450 -127 124 -334 326 -460 450 -127 124
-334 326 -460 450 -465 455 -682 667 -763 745 l-82 80 0 -2903z"/>
<path d="M220 10800 l0 -2860 470 0 470 0 0 2860 0 2860 -470 0 -470 0 0
-2860z"/>
<path d="M17080 10800 l0 -2860 470 0 470 0 0 2860 0 2860 -470 0 -470 0 0
-2860z"/>
<path d="M20930 10800 l0 -2861 1223 4 c1094 3 1234 5 1337 21 462 69 807 194
1135 410 146 97 218 156 349 284 443 437 690 991 778 1747 17 145 17 656 0
795 -69 566 -211 983 -465 1365 -121 182 -310 390 -482 531 -279 228 -661 407
-1050 493 -306 67 -399 71 -1682 71 l-1143 0 0 -2860z m2358 1989 c677 -73
1157 -438 1387 -1053 204 -548 202 -1341 -4 -1878 -88 -228 -209 -417 -371
-578 -204 -205 -434 -334 -725 -409 -214 -55 -199 -54 -972 -58 l-723 -4 0
1995 0 1996 655 0 c393 0 695 -4 753 -11z"/>
<path d="M27910 10800 l0 -2860 1690 0 1690 0 -2 433 -3 432 -1227 5 -1228 5
3 880 2 880 1098 3 1097 2 0 425 0 425 -1100 0 -1099 0 -1 685 0 685 1227 2
1228 3 3 428 2 427 -1690 0 -1690 0 0 -2860z"/>
<path d="M33560 10800 l0 -2860 470 0 470 0 0 1160 0 1160 338 0 337 -1 968
-1159 968 -1160 535 0 535 0 -99 118 c-55 64 -505 594 -1000 1177 l-900 1060
110 23 c661 138 1033 526 1149 1197 26 151 37 533 20 681 -70 596 -360 1019
-861 1258 -187 89 -352 138 -603 179 -128 20 -163 21 -1284 24 l-1153 4 0
-2861z m2301 1993 c281 -69 479 -214 584 -427 73 -148 89 -221 88 -421 0 -143
-3 -183 -22 -250 -96 -353 -364 -564 -781 -615 -49 -6 -325 -10 -657 -10
l-573 0 0 876 0 875 638 -4 c605 -3 641 -5 723 -24z"/>
</g>
</svg>
