<svg version="1.1" id="Camada_1" xmlns="http://www.w3.org/2000/svg" x="0" y="0" viewBox="0 0 1000 283.4" style="enable-background:new 0 0 1000 283.4" xml:space="preserve"><style>.st0{fill:#7c7c7b}.st1{fill:#c90c0f}.st2{fill:none}</style><path class="st0" d="M217.6 241.7v6.9h12V283h7.9v-34.3h12.3v-7zM291 241.7h8v41.4h-8zM340.2 241.7v6.9h11.9V283h8v-34.3h12.3v-7zM421 247.7l7.1 21.5H414l7-21.5zm-6-6L401.3 283h8.3l2.6-7.9H430l2.6 7.9h8.1l-14-41.4H415zM520 241.7V283h-13.3l-11.8-22.7c-.7-1.2-2-4.2-4.1-8.9l-1.3-3h-.3l.1 2.7c.1 2.7.2 5.4.2 8.1V283h-7.8v-41.4H495l10.8 21c1.1 2.3 2.8 5.6 4.9 10.1l1.6 3.4h.3l-.1-2.7c-.1-2.7-.2-5.3-.2-8v-23.8l7.7.1zM561.2 241.7h8v41.4h-8zM636.9 241.7h7.9v27.5c0 3.8-.4 6.6-1.2 8.3-1.2 2.6-3.3 4.3-6.5 5.2-1.7.5-4.7.7-9 .7-3.3 0-5.9-.1-7.6-.3-1.7-.2-3.1-.5-4.3-1.1-2.6-1.1-4.2-2.8-5.1-5.2-.6-1.6-.9-4-.9-7.2v-28h7.9v28c0 2.3.2 3.9.7 4.7.6 1 1.8 1.7 3.6 2 1 .2 2.7.2 5 .2 3.2 0 5.4-.2 6.6-.7 1.4-.5 2.3-1.9 2.5-4.2 0-.6.1-1.4.1-2.4l.3-27.5zM734.4 241.7V283h-7.8v-22.5c0-2.1.1-5.2.3-9.2l.1-3.1h-.2l-.9 2.9c-1.4 4.3-2.4 7.2-2.9 8.6l-9.1 23.3h-7.1l-9.2-23.2c-.6-1.4-1.5-4.3-2.9-8.6l-.9-2.9h-.2l.2 3c.2 4 .3 7.1.3 9.1V283H686v-41.4h12.8l7.4 19.2c.6 1.5 1.6 4.4 2.9 8.6l.9 2.8h.3l.9-2.8c1.3-4.1 2.2-6.9 2.8-8.5l7.3-19.2h13.1z"/><path d="M982.5 16c9.8 0 17.5 7.8 17.5 17.6 0 10-7.6 17.7-17.6 17.7-9.8 0-17.7-7.7-17.7-17.7 0-9.8 7.9-17.6 17.7-17.6h.1zm-.2 3.6c-7.5 0-13.2 6.3-13.2 14 0 7.8 5.6 14 13.4 14 7.5.1 13.1-6.2 13.1-14 0-7.7-5.5-14-13.2-14h-.1zm-2.6 23.1h-4V25.3c1.6-.3 3.8-.6 6.6-.6 3.2 0 4.7.5 6 1.4.9.8 1.7 2.2 1.7 3.8 0 2-1.5 3.5-3.6 4.2v.2c1.7.5 2.6 1.9 3.1 4.3.5 2.7.8 3.8 1.3 4.3h-4.3c-.5-.6-.8-2.1-1.4-4.2-.3-1.9-1.4-2.8-3.6-2.8h-1.9l.1 6.8zm.1-9.8h1.9c2.2 0 4-.7 4-2.6 0-1.6-1.2-2.7-3.7-2.7-1 0-1.8.1-2.2.2v5.1zM176.5 16l-31.6 54.8L113.2 16H52.1C23.3 16 0 39.4 0 68.2v132h86.2v-55.7l29.8 55.7h57.8l29.8-55.7v55.7h86.2V16H176.5z"/><path class="st1" d="m177 0-32.1 55.7L112.7 0z"/><path d="M522.3 16h-56.1c-7.2 0-14.1 1.5-20.4 4.1-6.3 2.7-11.9 6.5-16.6 11.2C424.5 36 414 54.4 414 54.4l-82.8 145.7h113.2l31.6-54.7 31.6 54.7h113.2L522.3 16z"/><path class="st1" d="m443.9 216.2 32.1-55.7 32.2 55.7zM839.3 0l-32.1 55.7L775 0z"/><path d="m952 200.2-65.9-97.3L952 16.1H838.8l-31.6 54.8-31.6-54.8H662.3l69.1 86.8-69.1 97.3h113.2l31.6-54.7 14.5 25.1s6.2 10.2 10.3 14.3c4.7 4.7 10.4 8.6 16.6 11.2 6.3 2.7 13.1 4.1 20.4 4.1H952z"/><path class="st2" d="M0 0h1000v283.4H0z"/><path class="st2" d="M0 0h1000v283.4H0z"/></svg>